<svg width="80" height="80" viewBox="0 0 80 80" fill="none" xmlns="http://www.w3.org/2000/svg">
<path d="M75.5034 45.8708L65.8022 29.0678C65.3678 28.3153 64.6637 27.7763 63.82 27.5502C62.9761 27.3244 62.097 27.4389 61.3444 27.8733L55.8167 31.0647C55.0642 31.4991 54.5253 32.2031 54.2992 33.047C54.1265 33.6853 54.153 34.361 54.3753 34.9838C49.5487 36.35 45.3458 35.72 42.5478 35.1039C38.2216 34.1517 36.1423 35.1048 33.2291 37.7445L25.6117 35.0234C25.8475 34.3903 25.8796 33.6993 25.7036 33.047C25.4775 32.2033 24.9386 31.4992 24.1861 31.0647L18.6584 27.8733C17.9058 27.4388 17.0267 27.3242 16.1828 27.5502C15.3391 27.7763 14.635 28.3152 14.2005 29.0678L4.49906 45.8708C3.59938 47.4292 4.13516 49.4289 5.69359 50.3286L11.2213 53.52C11.7138 53.8057 12.2731 53.9563 12.8425 53.9564C13.131 53.9562 13.4182 53.9182 13.6967 53.8431C14.5406 53.617 15.2445 53.0781 15.6791 52.3255L15.8522 52.0255L20.6339 57.9969L20.3252 58.4359C18.9533 60.3863 19.7391 62.4645 21.2242 63.5094C21.9053 63.9888 22.7416 64.2586 23.5789 64.2169C23.3802 64.9808 23.4455 65.7711 23.7844 66.5022C24.3542 67.7313 25.5942 68.6034 26.9436 68.7245C27.467 68.7717 27.9747 68.7005 28.4452 68.5219C28.5975 69.5269 29.2025 70.4124 30.0183 70.9861C31.2056 71.8211 32.8631 72.0122 34.1812 71.0598C34.2253 71.1989 34.2787 71.3364 34.3416 71.4719C34.9114 72.7008 36.1516 73.5731 37.5009 73.6941C37.6059 73.7036 37.7102 73.7081 37.8138 73.7081C38.9527 73.7081 39.9948 73.1439 40.7092 72.1284L41.5989 70.8636L45.2722 73.0025C45.9167 73.3777 46.5555 73.5414 47.1572 73.5414C48.4791 73.5414 49.6217 72.7505 50.2497 71.6722C50.6662 70.9574 50.8613 70.1077 50.7552 69.2813C52.3253 69.5636 53.7258 68.7044 54.447 67.4661C54.8439 66.7847 55.0397 65.9811 54.9655 65.1917C55.8547 65.4331 56.7655 65.3258 57.5673 64.8669C58.7431 64.1938 59.5059 62.8836 59.5109 61.5289C59.5139 60.7086 59.2336 59.9506 58.7167 59.3333C59.4873 59.0173 60.1292 58.4284 60.545 57.7136C61.2742 56.46 61.3214 54.7938 60.2598 53.562L63.9494 51.678L64.3233 52.3255C64.7578 53.078 65.4617 53.617 66.3056 53.8431C66.5884 53.9189 66.8752 53.9564 67.1598 53.9564C67.7293 53.9563 68.2885 53.8057 68.7811 53.52L74.3089 50.3286C75.8672 49.4289 76.4031 47.4292 75.5034 45.8708ZM14.3259 51.5442C14.1002 51.9355 13.7331 52.2158 13.2925 52.3339C12.8516 52.4519 12.3936 52.3925 12.0027 52.1669L6.475 48.9755C5.66281 48.5066 5.38359 47.4642 5.8525 46.652L15.5538 29.8491C15.7795 29.458 16.1466 29.1775 16.5873 29.0594C16.7356 29.0197 16.8858 29 17.0347 29C17.3286 29 17.6177 29.0766 17.8773 29.2264L23.405 32.4178C23.7961 32.6436 24.0764 33.0106 24.1945 33.4513C24.3125 33.8919 24.2533 34.35 24.0275 34.7411L14.3259 51.5442ZM22.1233 62.2317C21.2716 61.6325 20.7805 60.5044 21.603 59.3352L24.4737 55.2539C25.2959 54.085 26.5234 54.1655 27.3748 54.7639C28.2267 55.3625 28.7186 56.49 27.8978 57.6588L26.6111 59.4881L25.0252 61.743C24.2025 62.9122 22.975 62.8306 22.1233 62.2317ZM27.0833 67.1683C26.2922 67.0975 25.5361 66.5656 25.2019 65.845C24.9931 65.3947 24.867 64.6836 25.4517 63.8523L26.3031 62.6419L27.8891 60.387L30.3186 56.9331C31.1413 55.7636 32.3691 55.8444 33.2208 56.4438C34.0727 57.043 34.5639 58.1711 33.7412 59.3405L33.1311 60.2078L29.1181 65.913L28.8742 66.2597C28.2897 67.0911 27.578 67.2138 27.0833 67.1683ZM33.8192 69.2188C32.9966 70.388 31.7691 70.3072 30.9172 69.7081C30.0655 69.1091 29.5742 67.9814 30.3962 66.812L34.4092 61.1069C35.232 59.9388 36.4594 60.0202 37.3106 60.6194C38.1622 61.2186 38.6531 62.3467 37.8308 63.5158L36.172 65.8741L36.1703 65.8766L34.8219 67.7936L33.8192 69.2188ZM39.4314 71.2292C38.8467 72.0603 38.1348 72.1828 37.6405 72.1377C36.8494 72.0669 36.0933 71.535 35.7591 70.8144C35.5503 70.3641 35.4241 69.653 36.0089 68.8217L36.0981 68.6949L36.1 68.6922L37.4484 66.7752C38.2712 65.6058 39.4988 65.687 40.3503 66.2861C41.2022 66.8853 41.6934 68.0133 40.8709 69.1825L39.4314 71.2292ZM59.1947 56.928C58.6714 57.8277 57.5908 58.4144 56.3553 57.6967L51.3023 54.7547C51.2137 54.7031 51.1157 54.6694 51.014 54.6557C50.9123 54.6419 50.809 54.6483 50.7098 54.6745C50.6106 54.7007 50.5175 54.7462 50.4359 54.8084C50.3543 54.8706 50.2857 54.9482 50.2341 55.0369C50.1824 55.1256 50.1488 55.2235 50.135 55.3252C50.1213 55.4269 50.1277 55.5303 50.1539 55.6295C50.1801 55.7287 50.2256 55.8217 50.2878 55.9033C50.3499 55.985 50.4276 56.0535 50.5162 56.1052L55.5692 59.0472L55.5698 59.0475L55.57 59.0477L56.8905 59.8166C57.7687 60.3278 57.9508 61.0269 57.9489 61.5231C57.9459 62.3175 57.4808 63.1163 56.7916 63.5109C56.3608 63.7574 55.663 63.9441 54.785 63.4327L53.1527 62.4822C53.1514 62.4816 53.1502 62.4808 53.1491 62.48H53.1489L53.1488 62.4799L48.0461 59.5088C47.9574 59.4571 47.8595 59.4235 47.7578 59.4097C47.6561 59.396 47.5528 59.4024 47.4536 59.4286C47.3544 59.4548 47.2613 59.5003 47.1797 59.5625C47.0981 59.6246 47.0296 59.7023 46.978 59.7909C46.9263 59.8796 46.8927 59.9776 46.8789 60.0792C46.8651 60.1809 46.8715 60.2843 46.8977 60.3835C46.9239 60.4827 46.9694 60.5758 47.0315 60.6574C47.0937 60.739 47.1713 60.8076 47.26 60.8592L52.3622 63.83L52.3623 63.8302L52.3625 63.8303L52.3634 63.8308C53.5975 64.5506 53.6213 65.7803 53.0973 66.6797C52.5733 67.5792 51.4917 68.165 50.2559 67.4458L48.9555 66.6886C48.9543 66.6878 48.953 66.6871 48.9517 66.6864L48.9514 66.6861L48.9506 66.6858L44.7897 64.263C44.4167 64.0455 43.9386 64.1722 43.7214 64.545C43.5042 64.9178 43.6305 65.3961 44.0034 65.6131L48.1652 68.0364L48.1655 68.0367L48.168 68.0381C49.4002 68.7581 49.4237 69.987 48.9002 70.8859C48.3761 71.7858 47.2944 72.3714 46.0589 71.6524L42.4644 69.5592C43.3748 67.7702 42.6028 65.9606 41.2495 65.0088C40.6478 64.5853 39.9255 64.3275 39.1875 64.3C40.45 62.3838 39.6661 60.3663 38.2105 59.3419C37.4844 58.8308 36.582 58.5603 35.6894 58.6458C35.9134 57.2367 35.2025 55.9273 34.1205 55.1661C32.85 54.2722 31.0409 54.1158 29.6856 55.3095C29.4208 54.5723 28.9117 53.9338 28.2741 53.4856C26.7891 52.4422 24.5678 52.4053 23.1964 54.3548L21.5705 56.6664L16.6913 50.5733L24.865 36.4158L31.9523 38.9477C31.5461 39.3413 31.1206 39.7602 30.6675 40.2066C30.0699 40.7969 29.4698 41.3845 28.867 41.9695C28.7243 42.1077 28.6395 42.2951 28.6302 42.4936L28.2992 49.4608C28.2286 50.9473 28.8583 51.6648 29.3989 52.005C30.3989 52.6338 31.8845 52.4763 33.582 51.5597C35.0198 50.7836 35.8572 48.9947 36.6669 47.2647C36.8567 46.8589 37.038 46.4717 37.2202 46.1139C37.3722 46.0427 37.5239 45.9706 37.6756 45.8986C39.6347 44.9686 41.3266 44.1656 43.0002 45.1316L58.4586 54.0795C59.6931 54.7984 59.718 56.0281 59.1947 56.928ZM58.8745 52.515L43.7817 43.7786C41.397 42.4019 39.0637 43.5095 37.0052 44.4867C36.7778 44.5947 36.5502 44.7028 36.322 44.8081C36.1669 44.8797 36.0394 45.0001 35.9592 45.1509C35.7178 45.6055 35.4913 46.0897 35.2513 46.602C34.5817 48.0323 33.823 49.6536 32.8394 50.1847C31.4886 50.9138 30.59 50.9081 30.2305 50.6824C29.8889 50.4675 29.8402 49.9397 29.8594 49.5347L30.1756 42.8761C30.7436 42.3244 31.2611 41.8144 31.7636 41.3192C36.218 36.9308 37.562 35.6061 42.2117 36.6297C45.2403 37.2966 49.8267 37.9777 55.1247 36.3928L63.1672 50.323L58.8745 52.515ZM73.5278 48.9755L68 52.1669C67.6089 52.393 67.1508 52.4519 66.7102 52.3339C66.2695 52.2158 65.9025 51.9353 65.6766 51.5442L55.9753 34.7411C55.7495 34.35 55.6902 33.8919 55.8083 33.4513C55.9263 33.0106 56.2067 32.6436 56.5978 32.4178L62.1255 29.2264C62.3815 29.0781 62.6722 29 62.9681 29C63.117 29 63.2672 29.0197 63.4155 29.0594C63.8561 29.1775 64.2231 29.458 64.4489 29.8491L74.1502 46.652C74.6192 47.4642 74.34 48.5066 73.5278 48.9755ZM47.4092 17.5797L51.7761 10.0163C51.8804 9.83828 52.0509 9.7088 52.2504 9.65606C52.4498 9.60333 52.662 9.63163 52.8407 9.73479C53.0194 9.83794 53.15 10.0076 53.204 10.2067C53.2581 10.4058 53.2312 10.6182 53.1292 10.7975L48.7623 18.3609C48.7111 18.4498 48.6428 18.5277 48.5614 18.5902C48.48 18.6526 48.3871 18.6984 48.288 18.725C48.1889 18.7515 48.0855 18.7583 47.9838 18.7449C47.8821 18.7315 47.784 18.6982 47.6952 18.6469C47.5157 18.5433 47.3848 18.3726 47.3312 18.1725C47.2775 17.9724 47.3056 17.7591 47.4092 17.5797ZM39.22 15.8041V7.07031C39.22 6.86311 39.3023 6.6644 39.4488 6.51789C39.5953 6.37137 39.794 6.28906 40.0013 6.28906C40.2085 6.28906 40.4072 6.37137 40.5537 6.51789C40.7002 6.6644 40.7825 6.86311 40.7825 7.07031V15.8041C40.7825 16.0113 40.7002 16.21 40.5537 16.3565C40.4072 16.503 40.2085 16.5853 40.0013 16.5853C39.794 16.5853 39.5953 16.503 39.4488 16.3565C39.3023 16.21 39.22 16.0113 39.22 15.8041ZM53.6136 23.212L61.177 18.8453C61.3564 18.7433 61.5688 18.7165 61.7679 18.7705C61.967 18.8246 62.1366 18.9552 62.2397 19.1338C62.3429 19.3125 62.3712 19.5247 62.3185 19.7242C62.2657 19.9236 62.1363 20.0941 61.9583 20.1984L54.3948 24.5652C54.306 24.6166 54.2079 24.6499 54.1062 24.6634C54.0045 24.6768 53.9011 24.6701 53.8019 24.6435C53.7028 24.617 53.6099 24.5711 53.5285 24.5086C53.4471 24.4461 53.3789 24.3681 53.3277 24.2792C53.2763 24.1904 53.243 24.0923 53.2296 23.9906C53.2162 23.8889 53.223 23.7855 53.2495 23.6864C53.2761 23.5873 53.3219 23.4944 53.3844 23.413C53.4468 23.3316 53.5247 23.2633 53.6136 23.212ZM17.7583 19.1313C17.8096 19.0424 17.8778 18.9645 17.9592 18.902C18.0406 18.8395 18.1335 18.7937 18.2326 18.7671C18.3317 18.7406 18.4351 18.7338 18.5368 18.7472C18.6385 18.7607 18.7366 18.794 18.8255 18.8453L26.3889 23.212C26.5669 23.3164 26.6964 23.4869 26.7491 23.6863C26.8018 23.8858 26.7735 24.098 26.6704 24.2766C26.5672 24.4553 26.3976 24.5859 26.1985 24.64C25.9994 24.694 25.787 24.6671 25.6077 24.5652L18.0442 20.1984C17.8648 20.0948 17.7339 19.9242 17.6802 19.7241C17.6266 19.5239 17.6547 19.3107 17.7583 19.1313ZM26.8733 10.7975C26.7713 10.6182 26.7444 10.4058 26.7985 10.2067C26.8525 10.0076 26.9831 9.83794 27.1618 9.73479C27.3405 9.63163 27.5527 9.60333 27.7521 9.65606C27.9516 9.7088 28.1221 9.83828 28.2264 10.0163L32.5931 17.5797C32.6617 17.6984 32.6979 17.8331 32.698 17.9702C32.6981 18.1073 32.6621 18.242 32.5936 18.3608C32.5251 18.4796 32.4265 18.5782 32.3078 18.6469C32.1891 18.7155 32.0545 18.7516 31.9173 18.7517C31.78 18.7519 31.6451 18.7159 31.5262 18.6473C31.4073 18.5787 31.3086 18.4799 31.24 18.3609L26.8733 10.7975Z" fill="#1B1D21" stroke="#1B1D21" stroke-width="0.3"/>
</svg>
