<svg width="50" height="50" viewBox="0 0 50 50" fill="none" xmlns="http://www.w3.org/2000/svg">
<path fill-rule="evenodd" clip-rule="evenodd" d="M48.4329 26.6594V42.1048C48.4314 42.3412 48.2783 42.5178 48.0444 42.5745L29.9178 47.3829L29.6611 47.3839L11.5314 42.5745C11.4222 42.5536 11.3237 42.4952 11.2528 42.4095C11.182 42.3237 11.1433 42.216 11.1434 42.1048V41.4199C11.1434 40.7902 12.1001 40.7902 12.1001 41.4199V41.7381L29.31 46.3032V25.748L12.1001 21.1829V23.5131C12.1001 24.1428 11.1434 24.1428 11.1434 23.5131V20.5626C11.1434 20.3292 11.3105 20.135 11.5314 20.0928L29.6605 15.2839H29.9152L48.0444 20.0928C48.1537 20.1137 48.2522 20.1721 48.3231 20.2578C48.3941 20.3435 48.4329 20.4513 48.4329 20.5626V26.6594ZM6.89596 39.8469H22.696C23.3256 39.8469 23.3256 38.8902 22.696 38.8902H6.89596C6.26628 38.8902 6.26628 39.8469 6.89596 39.8469ZM3.46367 35.1933H19.2637C19.8934 35.1933 19.8934 34.2365 19.2637 34.2365H3.46367C2.83398 34.2365 2.83398 35.1933 3.46367 35.1933ZM2.03867 30.5391H17.8382C18.4678 30.5391 18.4678 29.5824 17.8382 29.5824H2.03867C1.40898 29.5824 1.40898 30.5391 2.03867 30.5391ZM3.8319 26.0433H19.6319C20.2616 26.0433 20.2616 25.0865 19.6319 25.0865H3.8319C3.20221 25.0865 3.20221 26.0433 3.8319 26.0433ZM6.35742 5.93236C5.72773 5.93236 5.72773 4.97559 6.35742 4.97559H12.7559C13.3855 4.97559 13.3855 5.93236 12.7559 5.93236H6.35742ZM8.51107 8.70215C7.88138 8.70215 7.88138 7.74538 8.51107 7.74538H11.9329C12.5626 7.74538 12.5626 8.70215 11.9329 8.70215H8.51107ZM10.6652 11.4725C10.0355 11.4725 10.0355 10.5157 10.6652 10.5157H12.135C12.7647 10.5157 12.7647 11.4725 12.135 11.4725H10.6652ZM12.8189 14.2423C12.1892 14.2423 12.1892 13.2855 12.8189 13.2855H13.4663C14.096 13.2855 14.096 14.2423 13.4663 14.2423H12.8189ZM32.0069 41.1199C31.8996 41.1426 31.8033 41.2016 31.7342 41.2868C31.6651 41.372 31.6273 41.4784 31.6272 41.5881V43.8469H31.6283C31.6283 43.9206 31.6455 43.9932 31.6783 44.0592C31.7111 44.1251 31.7587 44.1826 31.8174 44.227C31.8761 44.2715 31.9443 44.3018 32.0167 44.3156C32.089 44.3293 32.1636 44.3262 32.2345 44.3063L37.7757 42.748C37.883 42.7252 37.9792 42.6663 38.0484 42.5811C38.1175 42.4958 38.1552 42.3895 38.1553 42.2798V40.0209H38.1543C38.1543 39.9472 38.1373 39.8745 38.1045 39.8085C38.0717 39.7425 38.0241 39.685 37.9653 39.6405C37.9066 39.596 37.8384 39.5657 37.766 39.552C37.6936 39.5383 37.619 39.5416 37.548 39.5615L32.0069 41.1199ZM37.1991 40.6516L32.584 41.9495V43.2167L37.1991 41.9188V40.6516ZM19.7517 7.60007C19.8522 7.60007 19.9496 7.61048 20.0444 7.62975L21.3652 5.43236C21.4321 5.32801 21.5369 5.25378 21.6576 5.22538C21.7782 5.19698 21.9052 5.21664 22.0116 5.28019C22.118 5.34374 22.1955 5.44621 22.2276 5.56589C22.2598 5.68557 22.2442 5.81308 22.184 5.92142L20.8621 8.1209C21.0828 8.38675 21.2007 8.72305 21.1943 9.06853C21.1879 9.41401 21.0576 9.7457 20.8272 10.0032L21.6303 11.4605C21.6867 11.5711 21.6978 11.6993 21.6612 11.8179C21.6247 11.9365 21.5434 12.0363 21.4346 12.096C21.3258 12.1557 21.198 12.1707 21.0783 12.1378C20.9586 12.105 20.8564 12.0268 20.7934 11.9199L19.9913 10.4641C18.61 10.6943 17.7454 9.00944 18.7324 8.02194C18.9928 7.76152 19.3538 7.60007 19.7517 7.60007ZM20.0949 8.6985C19.7902 8.39382 19.2658 8.61048 19.2658 9.04173C19.2658 9.4735 19.7902 9.69017 20.0949 9.38496C20.1859 9.29393 20.2371 9.17047 20.2371 9.04173C20.2371 8.913 20.1859 8.78954 20.0949 8.6985ZM40.4574 22.8886L23.7897 17.8282L21.0533 18.5542L36.9074 23.2027C37.0143 23.2258 37.11 23.2849 37.1787 23.3699C37.2474 23.455 37.2849 23.561 37.285 23.6704V32.0443L38.4845 30.3818C38.5226 30.3292 38.5711 30.2849 38.627 30.2516C38.6828 30.2183 38.7449 30.1968 38.8094 30.1884C38.8738 30.18 38.9393 30.1848 39.0019 30.2025C39.0644 30.2203 39.1227 30.2507 39.173 30.2917L39.1741 30.2907L40.4574 31.3402V22.8886ZM25.5402 17.3641L40.747 21.9808L46.0934 20.5626L29.7881 16.2376L25.5402 17.3641ZM34.7626 23.5683L19.273 19.0266L13.4829 20.5626L29.7881 24.8876L34.7626 23.5683ZM41.4142 22.7912V32.3485C41.4147 32.7397 40.9486 32.9766 40.6329 32.7183L38.9605 31.3511L37.2173 33.7667C37.1638 33.8568 37.0821 33.9267 36.985 33.9659C36.8878 34.005 36.7805 34.0111 36.6795 33.9833C36.5785 33.9555 36.4894 33.8953 36.4259 33.8119C36.3625 33.7286 36.3282 33.6267 36.3283 33.5219V24.1402L30.2663 25.748V46.3032L47.4762 41.7381V21.1829L41.4142 22.7912ZM19.7517 2.61621C16.2027 2.61621 13.3257 5.49329 13.3257 9.04225C13.3257 12.5912 16.2027 15.4683 19.7517 15.4683C23.3006 15.4683 26.1777 12.5912 26.1777 9.04225C26.1777 5.49329 23.3006 2.61621 19.7517 2.61621ZM23.6189 5.17454C21.4829 3.03861 18.0199 3.03861 15.884 5.17454C13.748 7.31048 13.748 10.7735 15.884 12.9094C18.0199 15.0454 21.4829 15.0454 23.6189 12.9094C25.7548 10.7735 25.7548 7.31048 23.6189 5.17454Z" fill="white"/>
<path d="M48.2559 42.4766L48.2408 42.4886M48.4329 26.6594V42.1048C48.4314 42.3412 48.2783 42.5178 48.0444 42.5745L29.9178 47.3829L29.6611 47.3839L11.5314 42.5745C11.4222 42.5536 11.3237 42.4952 11.2528 42.4095C11.182 42.3237 11.1433 42.216 11.1434 42.1048V41.4199C11.1434 40.7902 12.1001 40.7902 12.1001 41.4199V41.7381L29.31 46.3032V25.748L12.1001 21.1829V23.5131C12.1001 24.1428 11.1434 24.1428 11.1434 23.5131V20.5626C11.1434 20.3292 11.3105 20.135 11.5314 20.0928L29.6605 15.2839H29.9152L48.0444 20.0928C48.1537 20.1137 48.2522 20.1721 48.3231 20.2578C48.394 20.3435 48.4329 20.4513 48.4329 20.5626V26.6594ZM6.89596 39.8469H22.696C23.3256 39.8469 23.3256 38.8902 22.696 38.8902H6.89596C6.26628 38.8902 6.26628 39.8469 6.89596 39.8469ZM3.46367 35.1933H19.2637C19.8934 35.1933 19.8934 34.2365 19.2637 34.2365H3.46367C2.83398 34.2365 2.83398 35.1933 3.46367 35.1933ZM2.03867 30.5391H17.8382C18.4678 30.5391 18.4678 29.5824 17.8382 29.5824H2.03867C1.40898 29.5824 1.40898 30.5391 2.03867 30.5391ZM3.8319 26.0433H19.6319C20.2616 26.0433 20.2616 25.0865 19.6319 25.0865H3.8319C3.20221 25.0865 3.20221 26.0433 3.8319 26.0433ZM6.35742 5.93236C5.72773 5.93236 5.72773 4.97559 6.35742 4.97559H12.7559C13.3855 4.97559 13.3855 5.93236 12.7559 5.93236H6.35742ZM8.51107 8.70215C7.88138 8.70215 7.88138 7.74538 8.51107 7.74538H11.9329C12.5626 7.74538 12.5626 8.70215 11.9329 8.70215H8.51107ZM10.6652 11.4725C10.0355 11.4725 10.0355 10.5157 10.6652 10.5157H12.135C12.7647 10.5157 12.7647 11.4725 12.135 11.4725H10.6652ZM12.8189 14.2423C12.1892 14.2423 12.1892 13.2855 12.8189 13.2855H13.4663C14.096 13.2855 14.096 14.2423 13.4663 14.2423H12.8189ZM32.0069 41.1199C31.8996 41.1426 31.8033 41.2016 31.7342 41.2868C31.6651 41.372 31.6273 41.4784 31.6272 41.5881V43.8469H31.6283C31.6283 43.9206 31.6455 43.9932 31.6783 44.0592C31.7111 44.1251 31.7587 44.1826 31.8174 44.227C31.8761 44.2715 31.9443 44.3018 32.0167 44.3156C32.089 44.3293 32.1636 44.3262 32.2345 44.3063L37.7757 42.748C37.883 42.7252 37.9792 42.6663 38.0483 42.5811C38.1175 42.4958 38.1552 42.3895 38.1553 42.2798V40.0209H38.1543C38.1543 39.9472 38.1373 39.8745 38.1045 39.8085C38.0717 39.7425 38.0241 39.685 37.9653 39.6405C37.9066 39.596 37.8384 39.5657 37.766 39.552C37.6936 39.5383 37.619 39.5416 37.548 39.5615L32.0069 41.1199ZM37.1991 40.6516L32.584 41.9495V43.2167L37.1991 41.9188V40.6516ZM19.7517 7.60007C19.8522 7.60007 19.9496 7.61048 20.0444 7.62975L21.3652 5.43236C21.4321 5.32801 21.5369 5.25378 21.6576 5.22538C21.7782 5.19698 21.9052 5.21664 22.0116 5.28019C22.118 5.34374 22.1955 5.44621 22.2276 5.56589C22.2598 5.68557 22.2442 5.81308 22.184 5.92142L20.8621 8.1209C21.0828 8.38676 21.2007 8.72305 21.1943 9.06853C21.1879 9.41401 21.0576 9.7457 20.8272 10.0032L21.6303 11.4605C21.6867 11.5711 21.6978 11.6993 21.6612 11.8179C21.6247 11.9365 21.5434 12.0363 21.4346 12.096C21.3258 12.1557 21.198 12.1707 21.0783 12.1378C20.9586 12.105 20.8564 12.0268 20.7934 11.9199L19.9913 10.4641C18.61 10.6943 17.7454 9.00944 18.7324 8.02194C18.9928 7.76152 19.3538 7.60007 19.7517 7.60007ZM20.0949 8.6985C19.7902 8.39382 19.2658 8.61048 19.2658 9.04173C19.2658 9.4735 19.7902 9.69017 20.0949 9.38496C20.1859 9.29393 20.2371 9.17047 20.2371 9.04173C20.2371 8.913 20.1859 8.78954 20.0949 8.6985ZM40.4574 22.8886L23.7897 17.8282L21.0533 18.5542L36.9074 23.2027C37.0143 23.2258 37.11 23.2849 37.1787 23.3699C37.2474 23.455 37.2849 23.561 37.285 23.6704V32.0443L38.4845 30.3818C38.5226 30.3292 38.5711 30.2849 38.627 30.2516C38.6828 30.2183 38.7449 30.1968 38.8094 30.1884C38.8738 30.18 38.9393 30.1848 39.0019 30.2025C39.0644 30.2203 39.1226 30.2507 39.173 30.2917L39.1741 30.2907L40.4574 31.3402V22.8886ZM25.5402 17.3641L40.747 21.9808L46.0934 20.5626L29.7881 16.2376L25.5402 17.3641ZM34.7626 23.5683L19.273 19.0266L13.4829 20.5626L29.7881 24.8876L34.7626 23.5683ZM41.4142 22.7912V32.3485C41.4147 32.7397 40.9486 32.9766 40.6329 32.7183L38.9605 31.3511L37.2173 33.7667C37.1638 33.8568 37.0821 33.9267 36.985 33.9659C36.8878 34.005 36.7805 34.0111 36.6795 33.9833C36.5785 33.9555 36.4894 33.8953 36.4259 33.8119C36.3625 33.7286 36.3282 33.6267 36.3283 33.5219V24.1402L30.2663 25.748V46.3032L47.4762 41.7381V21.1829L41.4142 22.7912ZM19.7517 2.61621C16.2027 2.61621 13.3257 5.49329 13.3257 9.04225C13.3257 12.5912 16.2027 15.4683 19.7517 15.4683C23.3006 15.4683 26.1777 12.5912 26.1777 9.04225C26.1777 5.49329 23.3006 2.61621 19.7517 2.61621ZM23.6189 5.17454C21.4829 3.03861 18.0199 3.03861 15.884 5.17454C13.748 7.31048 13.748 10.7735 15.884 12.9094C18.0199 15.0454 21.4829 15.0454 23.6189 12.9094C25.7548 10.7735 25.7548 7.31048 23.6189 5.17454Z" stroke="white" stroke-width="0.2"/>
</svg>
