<svg width="100" height="100" viewBox="0 0 100 100" fill="none" xmlns="http://www.w3.org/2000/svg">
<path d="M28.9123 53.007C28.173 53.0077 27.4642 53.3017 26.9415 53.8245C26.4187 54.3472 26.1247 55.056 26.124 55.7953V85.0725C26.1247 85.8117 26.4187 86.5205 26.9415 87.0433C27.4642 87.566 28.173 87.86 28.9123 87.8608H34.6297C34.951 89.4351 35.8063 90.85 37.0509 91.8662C38.2955 92.8824 39.8529 93.4375 41.4596 93.4375C43.0664 93.4375 44.6238 92.8824 45.8684 91.8662C47.1129 90.85 47.9683 89.4351 48.2896 87.8608H69.4821C69.8034 89.4351 70.6587 90.85 71.9033 91.8662C73.1478 92.8824 74.7053 93.4375 76.312 93.4375C77.9188 93.4375 79.4762 92.8824 80.7208 91.8662C81.9653 90.85 82.8206 89.4351 83.142 87.8608H87.4666C88.5755 87.8596 89.6387 87.4186 90.4228 86.6345C91.2069 85.8504 91.648 84.7872 91.6491 83.6783V73.4034C91.6456 72.5452 91.3832 71.708 90.8962 71.0013L82.4658 58.9558C82.0764 58.4116 81.5633 57.9676 80.9687 57.6605C80.3742 57.3534 79.7151 57.1919 79.0459 57.1894H66.5543V55.7953C66.5536 55.056 66.2596 54.3472 65.7369 53.8245C65.2141 53.3017 64.5053 53.0077 63.766 53.007H28.9123ZM41.4596 90.6491C40.6324 90.6491 39.8238 90.4038 39.136 89.9442C38.4482 89.4846 37.9121 88.8314 37.5955 88.0672C37.279 87.3029 37.1962 86.462 37.3575 85.6507C37.5189 84.8393 37.9173 84.0941 38.5022 83.5092C39.0871 82.9242 39.8324 82.5259 40.6437 82.3645C41.455 82.2031 42.2959 82.286 43.0602 82.6025C43.8244 82.9191 44.4776 83.4552 44.9372 84.143C45.3968 84.8308 45.6421 85.6394 45.6421 86.4666C45.641 87.5755 45.2 88.6387 44.4158 89.4228C43.6317 90.2069 42.5685 90.6479 41.4596 90.6491ZM63.766 85.0725H48.2896C47.9683 83.4982 47.1129 82.0832 45.8684 81.067C44.6238 80.0508 43.0664 79.4957 41.4596 79.4957C39.8529 79.4957 38.2955 80.0508 37.0509 81.067C35.8063 82.0832 34.951 83.4982 34.6297 85.0725H28.9123V55.7953H63.766V85.0725ZM76.3134 90.6491C75.4862 90.6491 74.6776 90.4038 73.9898 89.9442C73.302 89.4846 72.7659 88.8314 72.4493 88.0672C72.1328 87.3029 72.0499 86.462 72.2113 85.6507C72.3727 84.8393 72.771 84.0941 73.356 83.5092C73.9409 82.9242 74.6861 82.5259 75.4975 82.3645C76.3088 82.2031 77.1497 82.286 77.914 82.6025C78.6782 82.9191 79.3314 83.4552 79.791 84.143C80.2506 84.8308 80.4959 85.6394 80.4959 86.4666C80.4948 87.5755 80.0537 88.6387 79.2696 89.4228C78.4855 90.2069 77.4223 90.6479 76.3134 90.6491ZM82.7042 64.1602L86.6078 69.7368H73.5251V64.1602H82.7042ZM66.5543 59.9777H79.0459C79.2695 59.9791 79.4895 60.0332 79.6882 60.1356C79.8868 60.2381 80.0585 60.3861 80.1891 60.5675L80.7524 61.3719H72.131C71.7612 61.3719 71.4066 61.5188 71.1451 61.7802C70.8837 62.0417 70.7368 62.3963 70.7368 62.766V71.1309C70.7368 71.5007 70.8837 71.8553 71.1451 72.1168C71.4066 72.3782 71.7612 72.5251 72.131 72.5251H88.5596L88.5987 72.5809C88.7666 72.8225 88.8579 73.1091 88.8608 73.4034V83.6783C88.8604 84.0479 88.7134 84.4023 88.452 84.6637C88.1906 84.9251 87.8363 85.0721 87.4666 85.0725H83.1433C82.822 83.4982 81.9667 82.0832 80.7222 81.067C79.4776 80.0508 77.9202 79.4957 76.3134 79.4957C74.7066 79.4957 73.1492 80.0508 71.9047 81.067C70.6601 82.0832 69.8048 83.4982 69.4835 85.0725H66.5543V59.9777ZM8 61.3719H23.3357V64.1602H8V61.3719ZM10.7883 69.7368H23.3357V72.5251H10.7883V69.7368ZM13.5766 78.1017H23.3357V80.89H13.5766V78.1017ZM21.9415 37.6713C22.1556 37.6711 22.3667 37.6217 22.5586 37.527C22.7506 37.4322 22.9182 37.2946 23.0485 37.1248C24.076 35.7836 33.0947 23.8525 33.0947 18.1532C33.0947 15.1952 31.9197 12.3583 29.828 10.2667C27.7364 8.17507 24.8995 7 21.9415 7C18.9835 7 16.1466 8.17507 14.055 10.2667C11.9634 12.3583 10.7883 15.1952 10.7883 18.1532C10.7883 23.8511 19.8071 35.7836 20.8346 37.1248C20.9649 37.2946 21.1325 37.4322 21.3244 37.527C21.5163 37.6217 21.7275 37.6711 21.9415 37.6713ZM21.9415 9.7883C24.1592 9.79088 26.2854 10.673 27.8535 12.2412C29.4217 13.8093 30.3038 15.9355 30.3064 18.1532C30.3064 21.7013 25.0072 29.7274 21.9415 33.9434C18.8758 29.7274 13.5766 21.7027 13.5766 18.1532C13.5792 15.9355 14.4613 13.8093 16.0295 12.2412C17.5976 10.673 19.7238 9.79088 21.9415 9.7883Z" fill="#020C12"/>
<path d="M28.2153 18.1532C28.2153 16.9124 27.8474 15.6995 27.158 14.6678C26.4687 13.6361 25.4888 12.832 24.3425 12.3571C23.1961 11.8823 21.9347 11.758 20.7177 12.0001C19.5007 12.2422 18.3829 12.8397 17.5055 13.7171C16.6281 14.5945 16.0306 15.7123 15.7885 16.9293C15.5464 18.1463 15.6707 19.4077 16.1455 20.5541C16.6204 21.7004 17.4245 22.6802 18.4562 23.3696C19.4879 24.059 20.7008 24.4269 21.9417 24.4269C23.605 24.4251 25.1996 23.7635 26.3758 22.5874C27.5519 21.4112 28.2135 19.8166 28.2153 18.1532ZM18.4563 18.1532C18.4563 17.4639 18.6607 16.79 19.0437 16.2169C19.4266 15.6437 19.971 15.197 20.6079 14.9332C21.2447 14.6694 21.9455 14.6003 22.6216 14.7348C23.2977 14.8693 23.9187 15.2013 24.4062 15.6887C24.8936 16.1761 25.2256 16.7972 25.3601 17.4733C25.4945 18.1494 25.4255 18.8502 25.1617 19.487C24.8979 20.1239 24.4512 20.6682 23.878 21.0512C23.3049 21.4342 22.631 21.6386 21.9417 21.6386C21.0176 21.6375 20.1317 21.2699 19.4783 20.6165C18.8249 19.9632 18.4574 19.0773 18.4563 18.1532ZM77.7077 40.4597C77.9217 40.4595 78.1329 40.4101 78.3248 40.3153C78.5168 40.2206 78.6843 40.083 78.8146 39.9131C79.8421 38.572 88.8609 26.6408 88.8609 20.9415C88.8609 17.9835 87.6858 15.1467 85.5942 13.055C83.5026 10.9634 80.6657 9.78833 77.7077 9.78833C74.7497 9.78833 71.9128 10.9634 69.8212 13.055C67.7296 15.1467 66.5545 17.9835 66.5545 20.9415C66.5545 26.6394 75.5732 38.572 76.6007 39.9131C76.731 40.083 76.8986 40.2206 77.0906 40.3153C77.2825 40.4101 77.4936 40.4595 77.7077 40.4597ZM77.7077 12.5766C79.9254 12.5792 82.0516 13.4613 83.6197 15.0295C85.1879 16.5977 86.07 18.7238 86.0726 20.9415C86.0726 24.4897 80.7734 32.5158 77.7077 36.7317C74.642 32.5158 69.3428 24.491 69.3428 20.9415C69.3454 18.7238 70.2275 16.5977 71.7957 15.0295C73.3638 13.4613 75.49 12.5792 77.7077 12.5766Z" fill="#020C12"/>
<path d="M83.9811 20.9415C83.9811 19.7007 83.6131 18.4878 82.9238 17.4561C82.2344 16.4244 81.2546 15.6202 80.1082 15.1454C78.9619 14.6706 77.7004 14.5463 76.4835 14.7884C75.2665 15.0305 74.1486 15.628 73.2712 16.5054C72.3938 17.3828 71.7963 18.5006 71.5543 19.7176C71.3122 20.9346 71.4364 22.196 71.9113 23.3424C72.3861 24.4887 73.1902 25.4685 74.2219 26.1579C75.2536 26.8473 76.4666 27.2152 77.7074 27.2152C79.3707 27.2134 80.9654 26.5518 82.1415 25.3757C83.3177 24.1995 83.9792 22.6048 83.9811 20.9415ZM74.222 20.9415C74.222 20.2522 74.4264 19.5783 74.8094 19.0052C75.1924 18.432 75.7367 17.9853 76.3736 17.7215C77.0105 17.4577 77.7113 17.3886 78.3874 17.5231C79.0635 17.6576 79.6845 17.9896 80.1719 18.477C80.6594 18.9644 80.9913 19.5855 81.1258 20.2616C81.2603 20.9377 81.1913 21.6385 80.9275 22.2753C80.6637 22.9122 80.2169 23.4565 79.6438 23.8395C79.0706 24.2225 78.3967 24.4269 77.7074 24.4269C76.7834 24.4258 75.8975 24.0582 75.2441 23.4048C74.5907 22.7514 74.2231 21.8656 74.222 20.9415ZM71.6833 44.6421C72.6639 44.6388 73.6436 44.5816 74.618 44.4706L74.3057 41.7004C73.4331 41.7993 72.5558 41.8505 71.6777 41.8538L71.6833 44.6421ZM69.0804 41.6949C68.2263 41.5853 67.3815 41.4129 66.5528 41.179L65.7888 43.86C66.7496 44.1314 67.7291 44.3318 68.7193 44.4595L69.0804 41.6949ZM64.1535 40.2826C63.3787 39.9183 62.6346 39.4922 61.9284 39.0083L60.3656 41.317C61.1924 41.8827 62.0633 42.3811 62.9698 42.8074L64.1535 40.2826ZM31.6321 35.8826C30.7501 36.1392 29.8434 36.4264 28.9121 36.7442L29.8183 39.382C30.705 39.078 31.5694 38.8039 32.4114 38.5594L31.6321 35.8826ZM59.7228 37.3981C58.9307 36.8021 58.0988 36.2608 57.2329 35.7781L55.8973 38.2262C56.6541 38.6481 57.3808 39.1218 58.0722 39.6441L59.7228 37.3981ZM37.7008 37.3019L37.192 34.561C36.2997 34.7264 35.3675 34.9239 34.3953 35.1535L35.0408 37.8665C35.9637 37.6462 36.8532 37.4608 37.7008 37.3019ZM43.0837 36.5881L42.8606 33.8081C41.9962 33.8779 41.044 33.9754 40.0165 34.1121L40.3832 36.8753C41.3591 36.7456 42.2625 36.655 43.0837 36.5881ZM53.5677 37.2168L54.4571 34.5749C54.183 34.482 53.8972 34.3932 53.5997 34.3086C52.9258 34.1137 52.2416 33.956 51.5503 33.836L51.0763 36.5825C51.6688 36.6856 52.2553 36.821 52.833 36.9882C53.0885 37.0607 53.3335 37.1369 53.5677 37.2168ZM48.5083 36.3427L48.5738 33.5558C47.7345 33.5363 46.8409 33.5558 45.6782 33.6185L45.8287 36.4027C46.9162 36.3427 47.7443 36.326 48.5083 36.3427Z" fill="#020C12"/>
</svg>
