<svg width="100" height="100" viewBox="0 0 100 100" fill="none" xmlns="http://www.w3.org/2000/svg">
<path fill-rule="evenodd" clip-rule="evenodd" d="M78.1977 45.7191V48.6757L79.3113 47.5626C79.5235 47.3506 79.8112 47.2315 80.1112 47.2315C80.4112 47.2315 80.6989 47.3506 80.9111 47.5626L82.0245 48.6757V45.7191H78.1977ZM84.2873 45.7191H90.5239V66.5387H69.6983V45.7191H75.9351V51.4064C75.9358 51.6297 76.0025 51.8479 76.1269 52.0335C76.2513 52.219 76.4278 52.3636 76.6342 52.4491C76.8407 52.5346 77.0678 52.5571 77.287 52.5138C77.5062 52.4706 77.7077 52.3635 77.8661 52.206L80.111 49.9617L82.3492 52.1993C82.5069 52.3586 82.7084 52.4676 82.9281 52.5124C83.1478 52.5572 83.3759 52.5357 83.5834 52.4508C83.7909 52.3659 83.9686 52.2213 84.0939 52.0354C84.2191 51.8495 84.2864 51.6305 84.2871 51.4064L84.2873 45.7191ZM71.2846 65.8444H76.6693C76.9694 65.8444 77.2571 65.7252 77.4693 65.5131C77.6815 65.301 77.8006 65.0133 77.8006 64.7134C77.8006 64.4134 77.6815 64.1257 77.4693 63.9136C77.2571 63.7015 76.9694 63.5824 76.6693 63.5824H71.2846C70.9845 63.5824 70.6968 63.7015 70.4846 63.9136C70.2724 64.1257 70.1533 64.4134 70.1533 64.7134C70.1533 65.0133 70.2724 65.301 70.4846 65.5131C70.6968 65.7252 70.9845 65.8444 71.2846 65.8444ZM71.2846 62.7618H76.6693C76.8191 62.7637 76.9678 62.7358 77.1067 62.6798C77.2456 62.6238 77.372 62.5408 77.4786 62.4356C77.5851 62.3304 77.6698 62.205 77.7275 62.0669C77.7853 61.9287 77.815 61.7805 77.815 61.6307C77.815 61.481 77.7853 61.3327 77.7275 61.1946C77.6698 61.0564 77.5851 60.9311 77.4786 60.8259C77.372 60.7206 77.2456 60.6376 77.1067 60.5816C76.9678 60.5256 76.8191 60.4977 76.6693 60.4996H71.2846C71.1348 60.4977 70.9861 60.5256 70.8472 60.5816C70.7083 60.6376 70.5819 60.7206 70.4753 60.8259C70.3688 60.9311 70.2841 61.0564 70.2264 61.1946C70.1686 61.3327 70.1389 61.481 70.1389 61.6307C70.1389 61.7805 70.1686 61.9287 70.2264 62.0669C70.2841 62.205 70.3688 62.3304 70.4753 62.4356C70.5819 62.5408 70.7083 62.6238 70.8472 62.6798C70.9861 62.7358 71.1348 62.7637 71.2846 62.7618ZM69.731 43.4567V27.248C69.7326 26.7166 69.9446 26.2073 70.3205 25.8315C70.6964 25.4557 71.2058 25.2439 71.7374 25.2422H87.9468C88.4782 25.2448 88.987 25.457 89.3627 25.8326C89.7384 26.2082 89.9507 26.7169 89.9533 27.248V43.4567H90.5306C91.1281 43.4598 91.7002 43.6984 92.1226 44.1208C92.5451 44.5431 92.7838 45.115 92.7869 45.7123V66.5451C92.7838 67.1423 92.545 67.7142 92.1226 68.1366C91.7001 68.5589 91.1281 68.7976 90.5306 68.8007H69.6919C69.0945 68.7976 68.5224 68.559 68.0999 68.1366C67.6775 67.7143 67.4388 67.1423 67.4357 66.5451V45.7123C67.4362 45.413 67.4961 45.1167 67.6121 44.8407C67.7281 44.5647 67.8978 44.3145 68.1114 44.1047C68.3249 43.8948 68.578 43.7294 68.856 43.6182C69.134 43.507 69.4314 43.4521 69.7308 43.4567H69.731ZM78.2762 27.5044V30.0009C78.4819 29.7283 78.7066 29.4705 78.9485 29.2294C79.177 29.0361 79.473 28.9415 79.7713 28.9664C80.0697 28.9912 80.3459 29.1335 80.5393 29.3619L81.0791 30.0005V27.5044H78.2762ZM83.3419 27.5044V33.0893C83.3409 33.3271 83.2652 33.5585 83.1253 33.7508C82.9854 33.9431 82.7885 34.0866 82.5625 34.1608C82.3366 34.235 82.093 34.2362 81.8663 34.1643C81.6396 34.0923 81.4413 33.9509 81.2995 33.76L79.6772 31.84L78.0061 33.8182C77.8563 33.9938 77.6563 34.1194 77.433 34.178C77.2097 34.2366 76.9738 34.2255 76.7571 34.1461C76.5403 34.0667 76.353 33.9229 76.2204 33.7339C76.0879 33.5449 76.0163 33.3199 76.0155 33.0891L76.013 27.5044H71.9943V43.4567H87.691V27.5044H83.3419ZM73.6799 42.7472H77.1638C77.4639 42.7472 77.7516 42.628 77.9638 42.4159C78.176 42.2038 78.2952 41.9161 78.2952 41.6162C78.2952 41.3162 78.176 41.0285 77.9638 40.8164C77.7516 40.6043 77.4639 40.4852 77.1638 40.4852H73.6799C73.3799 40.4852 73.0921 40.6043 72.88 40.8164C72.6678 41.0285 72.5486 41.3162 72.5486 41.6162C72.5486 41.9161 72.6678 42.2038 72.88 42.4159C73.0921 42.628 73.3799 42.7472 73.6799 42.7472ZM49.1117 71.2314C48.2507 70.3704 47.1537 69.7841 45.9593 69.5465C44.7649 69.3088 43.5269 69.4307 42.4018 69.8965C41.2767 70.3623 40.315 71.1513 39.6384 72.1635C38.9618 73.1758 38.6007 74.3659 38.6007 75.5833C38.6007 76.8008 38.9618 77.9909 39.6384 79.0031C40.315 80.0154 41.2767 80.8043 42.4018 81.2701C43.5269 81.736 44.7649 81.8578 45.9593 81.6202C47.1537 81.3826 48.2507 80.7962 49.1117 79.9353C49.6857 79.365 50.1412 78.687 50.452 77.9401C50.7628 77.1932 50.9228 76.3923 50.9228 75.5833C50.9228 74.7744 50.7628 73.9734 50.452 73.2265C50.1412 72.4797 49.6857 71.8016 49.1117 71.2314ZM62.1678 19.6081C62.0503 19.7248 61.957 19.8635 61.8932 20.0163C61.8294 20.1691 61.7964 20.333 61.7961 20.4986V69.4978H64.3208V20.4993C64.32 20.2503 64.2455 20.0071 64.1068 19.8003C63.968 19.5935 63.7712 19.4323 63.541 19.3371C63.3108 19.2419 63.0577 19.2169 62.8133 19.2653C62.569 19.3136 62.3444 19.4331 62.1678 19.6088V19.6081ZM59.5333 62.1431V55.9816H57.337V62.1431H59.5333ZM24.5508 71.2314C23.6898 70.3704 22.5927 69.7841 21.3984 69.5465C20.204 69.3088 18.966 69.4307 17.8409 69.8965C16.7158 70.3623 15.7541 71.1513 15.0775 72.1635C14.4009 73.1758 14.0398 74.3659 14.0398 75.5833C14.0398 76.8008 14.4009 77.9909 15.0775 79.0031C15.7541 80.0154 16.7158 80.8043 17.8409 81.2701C18.966 81.736 20.204 81.8578 21.3984 81.6202C22.5927 81.3826 23.6898 80.7962 24.5508 79.9353C25.1248 79.3651 25.5803 78.687 25.8912 77.9401C26.202 77.1932 26.362 76.3923 26.362 75.5833C26.362 74.7744 26.202 73.9734 25.8912 73.2265C25.5803 72.4796 25.1248 71.8016 24.5508 71.2314ZM20.1977 67.1668C18.1608 67.167 16.193 67.9053 14.6589 69.2449C13.1248 70.5845 12.1284 72.4345 11.8542 74.4523H10.263V47.1341C10.263 46.5643 10.5894 45.5451 11.3001 45.5451C23.725 45.5451 36.15 45.4977 48.575 45.5451C50.3121 45.5451 51.9081 46.4577 53.0804 47.9282C54.3107 49.4715 55.0744 51.615 55.0744 53.9857V72.8633C55.0744 73.4329 54.7479 74.4523 54.0373 74.4523H53.102C52.8278 72.4346 51.8314 70.5847 50.2972 69.2453C48.7631 67.9059 46.7954 67.1678 44.7586 67.1678C42.7218 67.1678 40.754 67.9059 39.2199 69.2453C37.6858 70.5847 36.6893 72.4346 36.4151 74.4523H28.5408C28.2666 72.4345 27.2701 70.5845 25.736 69.2449C24.202 67.9053 22.2342 67.167 20.1973 67.1668H20.1977ZM21.9732 73.8084C22.3841 74.2191 22.6399 74.7594 22.6969 75.3375C22.7539 75.9155 22.6087 76.4954 22.2859 76.9784C21.9632 77.4614 21.4829 77.8175 20.927 77.9862C20.371 78.1549 19.7738 78.1256 19.237 77.9034C18.7002 77.6811 18.2571 77.2797 17.9832 76.7675C17.7093 76.2552 17.6215 75.6639 17.7348 75.0942C17.8481 74.5246 18.1555 74.0118 18.6046 73.6433C19.0537 73.2748 19.6167 73.0734 20.1977 73.0733C20.5275 73.0729 20.8541 73.1376 21.1588 73.2637C21.4635 73.3899 21.7403 73.575 21.9732 73.8084ZM20.1977 70.8106C21.3019 70.8106 22.372 71.1934 23.2255 71.8938C24.0791 72.5941 24.6634 73.5687 24.8788 74.6514C25.0942 75.7341 24.9275 76.858 24.4069 77.8316C23.8864 78.8051 23.0443 79.5682 22.0242 79.9906C21.004 80.4131 19.8689 80.4689 18.8122 80.1485C17.7555 79.828 16.8426 79.1513 16.2291 78.2334C15.6156 77.3155 15.3394 76.2134 15.4475 75.1148C15.5557 74.0162 16.0416 72.9891 16.8223 72.2084C17.2651 71.7646 17.7913 71.4127 18.3705 71.1728C18.9497 70.9329 19.5707 70.8099 20.1977 70.8106ZM46.534 73.8084C46.9449 74.2191 47.2006 74.7595 47.2576 75.3375C47.3146 75.9155 47.1694 76.4955 46.8466 76.9784C46.5239 77.4614 46.0436 77.8176 45.4877 77.9862C44.9317 78.1549 44.3344 78.1256 43.7976 77.9033C43.2608 77.6811 42.8178 77.2796 42.5439 76.7674C42.27 76.2551 42.1822 75.6638 42.2955 75.0941C42.4089 74.5244 42.7163 74.0117 43.1654 73.6432C43.6145 73.2747 44.1776 73.0733 44.7586 73.0733C45.0884 73.0729 45.415 73.1376 45.7197 73.2638C46.0243 73.3899 46.3011 73.575 46.534 73.8084ZM44.7586 70.8106C45.8628 70.8106 46.9329 71.1934 47.7864 71.8938C48.64 72.5941 49.2243 73.5687 49.4397 74.6514C49.6551 75.7341 49.4884 76.858 48.9679 77.8316C48.4473 78.8051 47.6053 79.5682 46.5851 79.9906C45.5649 80.4131 44.4298 80.4689 43.3731 80.1485C42.3164 79.828 41.4035 79.1513 40.79 78.2334C40.1765 77.3155 39.9003 76.2134 40.0084 75.1148C40.1166 74.0162 40.6025 72.9891 41.3833 72.2084C41.826 71.7646 42.3522 71.4127 42.9314 71.1728C43.5107 70.9329 44.1316 70.8099 44.7586 70.8106ZM13.7006 59.011H17.7663C17.9161 59.0129 18.0647 58.985 18.2036 58.929C18.3425 58.873 18.4689 58.79 18.5755 58.6848C18.6821 58.5796 18.7667 58.4542 18.8245 58.3161C18.8822 58.1779 18.912 58.0297 18.912 57.8799C18.912 57.7302 18.8822 57.5819 18.8245 57.4438C18.7667 57.3056 18.6821 57.1803 18.5755 57.0751C18.4689 56.9698 18.3425 56.8868 18.2036 56.8308C18.0647 56.7748 17.9161 56.747 17.7663 56.7488H13.7006C13.403 56.7526 13.1188 56.8734 12.9097 57.0851C12.7005 57.2968 12.5832 57.5824 12.5832 57.8799C12.5832 58.1775 12.7005 58.463 12.9097 58.6748C13.1188 58.8865 13.403 59.0073 13.7006 59.011ZM13.7006 62.2022H17.7663C17.9161 62.204 18.0647 62.1762 18.2036 62.1202C18.3425 62.0642 18.4689 61.9811 18.5755 61.8759C18.6821 61.7707 18.7667 61.6454 18.8245 61.5072C18.8822 61.3691 18.912 61.2208 18.912 61.0711C18.912 60.9213 18.8822 60.7731 18.8245 60.6349C18.7667 60.4967 18.6821 60.3714 18.5755 60.2662C18.4689 60.161 18.3425 60.078 18.2036 60.022C18.0647 59.966 17.9161 59.9381 17.7663 59.94H13.7006C13.403 59.9437 13.1188 60.0645 12.9097 60.2762C12.7005 60.4879 12.5832 60.7735 12.5832 61.0711C12.5832 61.3686 12.7005 61.6542 12.9097 61.8659C13.1188 62.0776 13.403 62.1984 13.7006 62.2022ZM36.2843 56.7879H52.3027C52.6027 56.7879 52.8905 56.6687 53.1027 56.4566C53.3148 56.2445 53.434 55.9568 53.434 55.6568C53.434 55.3569 53.3148 55.0692 53.1027 54.8571C52.8905 54.645 52.6027 54.5258 52.3027 54.5258H36.2843C35.9843 54.5258 35.6965 54.645 35.4844 54.8571C35.2722 55.0692 35.153 55.3569 35.153 55.6568C35.153 55.9568 35.2722 56.2445 35.4844 56.4566C35.6965 56.6687 35.9843 56.7879 36.2843 56.7879ZM28.1579 56.7879H31.7866C32.0866 56.7879 32.3744 56.6687 32.5865 56.4566C32.7987 56.2445 32.9179 55.9568 32.9179 55.6568C32.9179 55.3569 32.7987 55.0692 32.5865 54.8571C32.3744 54.645 32.0866 54.5258 31.7866 54.5258H28.1575C27.8575 54.5258 27.5697 54.645 27.3576 54.8571C27.1454 55.0692 27.0262 55.3569 27.0262 55.6568C27.0262 55.9568 27.1454 56.2445 27.3576 56.4566C27.5697 56.6687 27.8575 56.7879 28.1575 56.7879H28.1579ZM13.5762 43.2829V20.3794C13.5734 19.9171 13.6606 19.4587 13.8331 19.0298C14.0087 18.6002 14.2726 18.2121 14.6076 17.8908C14.9389 17.5653 15.3414 17.3212 15.7833 17.1779C16.2273 17.0373 16.6992 17.0084 17.157 17.094L43.5639 21.8343C44.7893 22.0613 45.8826 22.7454 46.6225 23.7481C47.3826 24.774 47.7886 26.0191 47.7792 27.2958V43.2834H48.575C51.0349 43.2834 53.2543 44.5251 54.8482 46.5237C56.3367 48.3908 57.2778 50.9308 57.3344 53.72H59.5333V20.4993C59.5399 19.5689 59.9142 18.6789 60.5746 18.0234C61.235 17.3679 62.1278 17 63.0585 17C63.9891 17 64.882 17.3679 65.5423 18.0234C66.2027 18.6789 66.577 19.5689 66.5836 20.4993V69.4978H91.8827C92.1803 69.5015 92.4645 69.6223 92.6736 69.834C92.8827 70.0458 93 70.3313 93 70.6289C93 70.9264 92.8827 71.212 92.6736 71.4237C92.4645 71.6354 92.1803 71.7563 91.8827 71.76H60.6648C60.3647 71.76 60.077 71.6408 59.8648 71.4287C59.6526 71.2166 59.5334 70.929 59.5333 70.629V64.4053H57.337V72.8633C57.3451 73.8123 57.0336 74.7363 56.4527 75.4868C56.1701 75.8617 55.8056 76.1672 55.387 76.3799C54.9684 76.5926 54.5068 76.707 54.0373 76.7143H53.102C52.8281 78.7322 51.8318 80.5825 50.2976 81.9221C48.7635 83.2618 46.7956 84 44.7586 84C42.7216 84 40.7537 83.2618 39.2195 81.9221C37.6854 80.5825 36.689 78.7322 36.4151 76.7143H28.5408C28.2669 78.7322 27.2705 80.5825 25.7364 81.9221C24.2022 83.2618 22.2343 84 20.1973 84C18.1603 84 16.1924 83.2618 14.6583 81.9221C13.1241 80.5825 12.1278 78.7322 11.8538 76.7143H8.00016V47.1341C7.992 46.1851 8.30349 45.261 8.88449 44.5106C9.16712 44.1356 9.53164 43.8302 9.95025 43.6174C10.3689 43.4047 10.8305 43.2902 11.3001 43.2829H13.5762ZM19.2752 43.2829V27.109C19.2745 26.8242 19.3288 26.5419 19.4349 26.2776C19.5446 25.9999 19.7139 25.7495 19.9308 25.5442C20.1477 25.3389 20.4069 25.1836 20.6902 25.0891C20.7954 25.0561 21.6102 24.9362 21.6102 25.0462L39.7773 28.6902C40.4614 28.8304 41.0669 29.2247 41.4718 29.7935C41.8715 30.3528 42.0844 31.024 42.0802 31.7114V43.2822H45.5164V27.2945C45.5164 25.8518 44.6784 24.323 43.1661 24.0514L16.7592 19.3122C16.169 19.2058 15.8385 19.872 15.8385 20.3794V43.2829H19.2752ZM39.8174 43.2829V31.7121C39.8174 31.4136 39.6721 30.9671 39.3353 30.9L21.5387 27.3295V43.2829H39.8174Z" fill="white"/>
</svg>
