<svg width="100" height="100" viewBox="0 0 100 100" fill="none" xmlns="http://www.w3.org/2000/svg">
<path d="M36.1579 54.043V47.5293L39.4489 45.9297C39.7653 45.7754 39.9958 45.4883 40.0778 45.1445C40.1599 44.8008 40.0817 44.4414 39.8669 44.1621L35.9177 39.0215C35.79 38.8539 35.6192 38.7243 35.4235 38.6465L21.9567 33.2891C21.6784 33.1777 21.3679 33.1777 21.0895 33.2891L7.61688 38.6465C7.42089 38.7238 7.24994 38.8535 7.12274 39.0215L3.17157 44.1602C2.95672 44.4395 2.8786 44.8008 2.96063 45.1426C3.04266 45.4844 3.27117 45.7734 3.58953 45.9277L6.88055 47.5273V54.041C6.88055 54.4922 7.14032 54.9043 7.54852 55.0996L21.0153 61.5273V61.5254C21.1735 61.6016 21.3454 61.6406 21.5192 61.6406C21.6911 61.6406 21.863 61.6035 22.0231 61.5273L35.4899 55.0996C35.8981 54.9062 36.1579 54.4941 36.1579 54.043ZM26.0563 49.8359L23.2907 45.6484L34.5954 41.1504L37.1306 44.4492L26.0563 49.8359ZM21.5173 35.6387L31.8141 39.7363L21.5173 43.834L11.2204 39.7363L21.5173 35.6387ZM8.4411 41.1523L19.7477 45.6504L16.9821 49.8379L5.90789 44.4512L8.4411 41.1523ZM9.22235 48.6699L16.8786 52.3945C17.0427 52.4746 17.2184 52.5137 17.3903 52.5137C17.7731 52.5137 18.1462 52.3262 18.3688 51.9883L20.3454 48.9961V58.6152L9.22235 53.3066V48.6699ZM22.6891 58.6133V48.9941L24.6657 51.9863C24.7726 52.1481 24.9179 52.2807 25.0887 52.3724C25.2595 52.4641 25.4504 52.512 25.6442 52.5117C25.8161 52.5117 25.9919 52.4727 26.1559 52.3926L33.8122 48.668V53.3027L22.6891 58.6133ZM78.7341 67.3945C76.5107 70.2659 73.8241 72.7466 70.7849 74.7344C70.5251 74.9045 70.2083 74.9645 69.9043 74.9011C69.6003 74.8377 69.334 74.6562 69.1638 74.3965C68.8083 73.8555 68.9606 73.1289 69.5016 72.7734C72.3237 70.9274 74.8183 68.6237 76.8825 65.957C77.279 65.4453 78.0153 65.3516 78.527 65.748C79.0388 66.1445 79.1306 66.8828 78.7341 67.3945ZM28.1032 26.2637C34.3161 18.9785 43.3669 14.8008 52.9352 14.8008C62.3454 14.8008 71.2985 18.8652 77.4977 25.9531C77.5991 26.069 77.6766 26.2038 77.7258 26.3497C77.7751 26.4956 77.7951 26.6497 77.7848 26.8033C77.7744 26.957 77.7339 27.107 77.6656 27.245C77.5972 27.383 77.5024 27.5061 77.3864 27.6074C77.2705 27.7088 77.1357 27.7863 76.9899 27.8355C76.844 27.8847 76.6898 27.9048 76.5362 27.8944C76.3826 27.8841 76.2325 27.8436 76.0945 27.7752C75.9566 27.7069 75.8334 27.612 75.7321 27.4961C69.9763 20.918 61.6677 17.1445 52.9333 17.1445C44.0544 17.1445 35.652 21.0234 29.8845 27.7852C29.7744 27.9144 29.6376 28.0182 29.4835 28.0894C29.3294 28.1605 29.1616 28.1973 28.9919 28.1973C28.7223 28.1973 28.4528 28.1055 28.2321 27.918C27.7419 27.4961 27.6833 26.7559 28.1032 26.2637ZM36.5954 74.3301C36.4888 74.4921 36.3435 74.625 36.1727 74.7167C36.0018 74.8084 35.8108 74.8561 35.6169 74.8555C35.3942 74.8555 35.1716 74.793 34.9724 74.6602C30.5114 71.7129 26.8063 67.6758 24.2556 62.9863C24.1072 62.7133 24.0733 62.3925 24.1611 62.0945C24.249 61.7964 24.4516 61.5454 24.7243 61.3965C24.8596 61.323 25.008 61.2768 25.1612 61.2607C25.3143 61.2446 25.4691 61.2588 25.6167 61.3025C25.7644 61.3462 25.9019 61.4186 26.0216 61.5155C26.1413 61.6124 26.2407 61.7319 26.3141 61.8672C28.6813 66.2207 32.1227 69.9687 36.2634 72.7051C36.392 72.7899 36.5026 72.8992 36.5889 73.0268C36.6752 73.1544 36.7355 73.2978 36.7663 73.4487C36.7971 73.5997 36.7979 73.7552 36.7686 73.9064C36.7393 74.0576 36.6804 74.2016 36.5954 74.3301ZM66.195 66.8242H39.6755C39.029 66.8242 38.5036 67.3496 38.5036 67.9961V89.7578C38.5036 90.4043 39.029 90.9297 39.6755 90.9297H66.195C66.8415 90.9297 67.3669 90.4043 67.3669 89.7578V67.9961C67.3669 67.3477 66.8415 66.8242 66.195 66.8242ZM49.6208 69.168H56.2497V74.5996L53.6325 72.6562C53.4307 72.506 53.1859 72.4248 52.9343 72.4248C52.6827 72.4248 52.4378 72.506 52.236 72.6562L49.6208 74.5977V69.168ZM65.0231 88.584H40.8474V69.166H47.277V76.9277C47.2768 77.1448 47.337 77.3577 47.4508 77.5426C47.5645 77.7275 47.7275 77.8771 47.9213 77.9747C48.1152 78.0724 48.3324 78.1142 48.5487 78.0956C48.765 78.0769 48.9719 77.9985 49.1462 77.8691L52.9333 75.0566L56.7204 77.8691C56.8951 77.9984 57.1022 78.0767 57.3188 78.0953C57.5353 78.1139 57.7527 78.0721 57.947 77.9746C58.141 77.8772 58.3041 77.7276 58.4179 77.5427C58.5317 77.3578 58.5918 77.1449 58.5915 76.9277V69.166H65.0212V88.584H65.0231ZM20.5934 29.9102C20.8161 30.1953 21.1559 30.3613 21.5173 30.3613C21.8786 30.3613 22.2204 30.1953 22.4411 29.9102L29.5934 20.7266C29.8688 20.373 29.9177 19.8945 29.7223 19.4922C29.527 19.0898 29.1169 18.834 28.6696 18.834H25.5231V10.2441C25.5231 9.59766 24.9977 9.07227 24.3513 9.07227H18.6852C18.0388 9.07227 17.5134 9.59766 17.5134 10.2441V18.8359H14.3649C13.9177 18.8359 13.5095 19.0918 13.3122 19.4941C13.1149 19.8965 13.1657 20.375 13.4411 20.7285L20.5934 29.9102ZM18.6852 21.1797C19.3317 21.1797 19.8571 20.6543 19.8571 20.0078V11.416H23.1794V20.0078C23.1794 20.6543 23.7048 21.1797 24.3513 21.1797H26.2731L21.5192 27.2832L16.7653 21.1797H18.6852ZM97.0681 37.8945C97.0681 37.5898 96.9509 37.291 96.7282 37.0664L90.945 31.2832C90.8362 31.1748 90.707 31.089 90.5649 31.0306C90.4227 30.9723 90.2705 30.9427 90.1169 30.9434V30.9414H71.527C70.8806 30.9414 70.3552 31.4668 70.3552 32.1133V62.7383C70.3552 63.3848 70.8806 63.9102 71.527 63.9102H95.8981C96.5446 63.9102 97.07 63.3848 97.07 62.7383V37.8945H97.0681ZM91.2868 34.9414L93.07 36.7246H91.2868V34.9414ZM72.697 61.5644V33.2832H88.9431V37.8945C88.9431 38.541 89.4685 39.0664 90.1149 39.0664H94.7263V61.5644H72.697ZM92.031 44.3516C92.031 44.998 91.5056 45.5234 90.8591 45.5234H76.8434C76.197 45.5234 75.6716 44.998 75.6716 44.3516C75.6716 43.7051 76.197 43.1797 76.8434 43.1797H90.8591C91.5075 43.1797 92.031 43.7051 92.031 44.3516ZM92.031 50.4961C92.031 51.1426 91.5056 51.668 90.8591 51.668H76.8434C76.197 51.668 75.6716 51.1426 75.6716 50.4961C75.6716 49.8496 76.197 49.3242 76.8434 49.3242H90.8591C91.5075 49.3242 92.031 49.8496 92.031 50.4961ZM92.031 56.6406C92.031 57.2871 91.5056 57.8125 90.8591 57.8125H76.8434C76.197 57.8125 75.6716 57.2871 75.6716 56.6406C75.6716 55.9941 76.197 55.4688 76.8434 55.4688H90.8591C91.5075 55.4688 92.031 55.9922 92.031 56.6406ZM75.6716 38.209C75.6716 37.5625 76.197 37.0371 76.8434 37.0371H84.9567C85.6032 37.0371 86.1286 37.5625 86.1286 38.209C86.1286 38.8555 85.6032 39.3809 84.9567 39.3809H76.8434C76.197 39.3809 75.6716 38.8555 75.6716 38.209Z" fill="white"/>
</svg>
