<svg width="100" height="100" viewBox="0 0 100 100" fill="none" xmlns="http://www.w3.org/2000/svg">
<path d="M48.1282 85C47.9377 85 47.7521 84.9474 47.5854 84.8422C47.2998 84.6557 47.1284 84.34 47.1284 83.9956V45.3716C47.1284 44.9794 47.3569 44.6207 47.714 44.458L80.8415 29.2763C81.151 29.1328 81.5128 29.1615 81.7985 29.3433C82.0842 29.5298 82.2556 29.8455 82.2556 30.1899V48.4902C82.2556 49.0451 81.808 49.4947 81.2557 49.4947C80.7035 49.4947 80.2559 49.0451 80.2559 48.4902V31.7492L49.128 46.0173V82.4315L58.1312 78.3036C58.6359 78.074 59.2263 78.2941 59.4548 78.8011C59.6833 79.3081 59.4643 79.9012 58.9596 80.1308L48.5424 84.9044C48.4091 84.9666 48.2663 85 48.1282 85ZM26.9176 70.2345C26.7748 70.2345 26.6367 70.2058 26.5034 70.1436L18.8571 66.6423C18.5 66.4797 18.2715 66.1209 18.2715 65.7287V58.7262C18.2715 58.3866 18.4429 58.0661 18.7285 57.8796C19.0142 57.693 19.3761 57.6691 19.6855 57.8126L27.3318 61.3186C27.6889 61.4813 27.9174 61.84 27.9174 62.2322V69.2348C27.9174 69.5744 27.746 69.8948 27.4604 70.0814C27.2937 70.1818 27.1033 70.2345 26.9176 70.2345ZM20.2711 65.083L25.9178 67.6707V62.878L20.2711 60.2903V65.083Z" fill="#020C12" stroke="black" stroke-width="0.3"/>
<path d="M48.1274 85C47.9846 85 47.8465 84.9713 47.7132 84.9091L14.5856 69.7274C14.2285 69.5648 14 69.206 14 68.8138V30.185C14 29.8454 14.1714 29.525 14.4571 29.3384C14.7427 29.1519 15.1046 29.128 15.414 29.2715L48.5416 44.4532C48.8987 44.6158 49.1272 44.9746 49.1272 45.3668V83.9908C49.1272 84.3304 48.9558 84.6508 48.6702 84.8374C48.5035 84.9474 48.3131 85 48.1274 85ZM15.9997 68.1681L47.1276 82.4362V46.0173L15.9997 31.7491V68.1681Z" fill="#020C12" stroke="black" stroke-width="0.3"/>
<path d="M34.4155 48.9828C34.2774 48.9828 34.1345 48.9541 34.0012 48.8919L26.6644 45.5294C26.1597 45.2998 25.9407 44.7019 26.1693 44.1996C26.3978 43.6926 26.9929 43.4726 27.4928 43.7022L34.8297 47.0648C35.3343 47.2943 35.5533 47.8922 35.3248 48.3945C35.1582 48.7628 34.7963 48.9828 34.4155 48.9828ZM81.2502 31.1895C81.1121 31.1895 80.9693 31.1608 80.8359 31.0986L48.1273 16.1082L15.414 31.0986C14.9093 31.3282 14.319 31.1081 14.0904 30.6011C13.8619 30.0941 14.0809 29.501 14.5856 29.2714L47.7131 14.0897C47.975 13.9701 48.2797 13.9701 48.5416 14.0897L81.6691 29.2714C82.1738 29.501 82.3928 30.0989 82.1643 30.6011C81.9929 30.9742 81.631 31.1895 81.2502 31.1895Z" fill="#020C12" stroke="black" stroke-width="0.3"/>
<path d="M27.0779 36.7282C26.697 36.7282 26.3352 36.5082 26.1685 36.1399C25.94 35.6329 26.159 35.0398 26.6637 34.8102L59.7913 19.6284C60.2959 19.3988 60.8863 19.6189 61.1148 20.1259C61.3434 20.6329 61.1244 21.226 60.6197 21.4556L27.4921 36.6373C27.3588 36.6995 27.216 36.7282 27.0779 36.7282ZM34.4147 40.0908C33.8624 40.0908 33.4149 39.6412 33.4149 39.0863C33.4149 38.6702 33.6672 38.3114 34.0243 38.1584L67.1233 22.9862C67.628 22.7566 68.2184 22.9766 68.4469 23.4837C68.6754 23.9907 68.4564 24.5838 67.9517 24.8134L34.8289 39.9999C34.7004 40.0573 34.5576 40.0908 34.4147 40.0908Z" fill="#020C12" stroke="black" stroke-width="0.3"/>
<path d="M34.4148 48.9829C33.8625 48.9829 33.4149 48.5332 33.4149 47.9784V39.0865C33.4149 38.5317 33.8625 38.082 34.4148 38.082C34.9671 38.082 35.4146 38.5317 35.4146 39.0865V47.9784C35.4146 48.5332 34.9671 48.9829 34.4148 48.9829ZM27.078 45.6203C26.5257 45.6203 26.0781 45.1707 26.0781 44.6158V35.7239C26.0781 35.1691 26.5257 34.7195 27.078 34.7195C27.6302 34.7195 28.0778 35.1691 28.0778 35.7239V44.6158C28.0778 45.1707 27.6302 45.6203 27.078 45.6203ZM84.2299 82.0632H60.1579C58.7153 82.0632 57.5441 80.8865 57.5441 79.4372V50.1069C57.5441 48.6576 58.7153 47.4809 60.1579 47.4809H65.7284C66.2806 47.4809 66.7282 47.9306 66.7282 48.4854C66.7282 49.0402 66.2806 49.4899 65.7284 49.4899H60.1579C59.8199 49.4899 59.5437 49.7673 59.5437 50.1069V79.4372C59.5437 79.7768 59.8199 80.0542 60.1579 80.0542H84.2299C84.5679 80.0542 84.8441 79.7768 84.8441 79.4372V50.1069C84.8441 49.7673 84.5679 49.4899 84.2299 49.4899H78.6594C78.1072 49.4899 77.6596 49.0402 77.6596 48.4854C77.6596 47.9306 78.1072 47.4809 78.6594 47.4809H84.2299C85.6725 47.4809 86.8437 48.6576 86.8437 50.1069V79.4372C86.8437 80.8865 85.6725 82.0632 84.2299 82.0632Z" fill="#020C12" stroke="black" stroke-width="0.3"/>
<path d="M75.3074 47.5669C74.7551 47.5669 74.3076 47.1173 74.3076 46.5625V44.8262C74.3076 44.7831 74.2742 44.7496 74.2314 44.7496H70.1559C70.1131 44.7496 70.0797 44.7831 70.0797 44.8262V46.5625C70.0797 47.1173 69.6322 47.5669 69.0799 47.5669C68.5276 47.5669 68.0801 47.1173 68.0801 46.5625V44.8262C68.0801 43.6782 69.0132 42.7407 70.1559 42.7407H74.2314C75.374 42.7407 76.3072 43.6782 76.3072 44.8262V46.5625C76.3072 47.1173 75.8597 47.5669 75.3074 47.5669Z" fill="#020C12" stroke="black" stroke-width="0.3"/>
<path d="M76.7569 52.1014H67.6347C66.035 52.1014 64.7305 50.7908 64.7305 49.1836V48.4709C64.7305 46.8638 66.035 45.5532 67.6347 45.5532H76.7569C78.3567 45.5532 79.6612 46.8638 79.6612 48.4709V49.1836C79.6612 50.7908 78.3567 52.1014 76.7569 52.1014ZM67.6347 47.5669C67.1348 47.5669 66.7301 47.9735 66.7301 48.4757V49.1884C66.7301 49.6907 67.1348 50.0972 67.6347 50.0972H76.7569C77.2569 50.0972 77.6615 49.6907 77.6615 49.1884V48.4757C77.6615 47.9735 77.2569 47.5669 76.7569 47.5669H67.6347ZM80.7896 60.2997H69.1821C68.6298 60.2997 68.1822 59.8501 68.1822 59.2952C68.1822 58.7404 68.6298 58.2908 69.1821 58.2908H80.7896C81.3419 58.2908 81.7894 58.7404 81.7894 59.2952C81.7894 59.8501 81.3419 60.2997 80.7896 60.2997ZM80.7896 65.7764H69.1821C68.6298 65.7764 68.1822 65.3268 68.1822 64.7719C68.1822 64.2171 68.6298 63.7675 69.1821 63.7675H80.7896C81.3419 63.7675 81.7894 64.2171 81.7894 64.7719C81.7894 65.3268 81.3419 65.7764 80.7896 65.7764ZM80.7896 71.2531H69.1821C68.6298 71.2531 68.1822 70.8035 68.1822 70.2487C68.1822 69.6938 68.6298 69.2442 69.1821 69.2442H80.7896C81.3419 69.2442 81.7894 69.6938 81.7894 70.2487C81.7894 70.8035 81.3419 71.2531 80.7896 71.2531Z" fill="#020C12" stroke="black" stroke-width="0.3"/>
<path d="M64.7975 60.5007C65.4601 60.5007 65.9972 59.961 65.9972 59.2953C65.9972 58.6296 65.4601 58.09 64.7975 58.09C64.1348 58.09 63.5977 58.6296 63.5977 59.2953C63.5977 59.961 64.1348 60.5007 64.7975 60.5007Z" fill="#020C12" stroke="black" stroke-width="0.3"/>
<path d="M64.7975 65.9772C65.4601 65.9772 65.9972 65.4376 65.9972 64.7719C65.9972 64.1062 65.4601 63.5665 64.7975 63.5665C64.1348 63.5665 63.5977 64.1062 63.5977 64.7719C63.5977 65.4376 64.1348 65.9772 64.7975 65.9772Z" fill="#020C12" stroke="black" stroke-width="0.3"/>
<path d="M64.7975 71.454C65.4601 71.454 65.9972 70.9144 65.9972 70.2487C65.9972 69.583 65.4601 69.0433 64.7975 69.0433C64.1348 69.0433 63.5977 69.583 63.5977 70.2487C63.5977 70.9144 64.1348 71.454 64.7975 71.454Z" fill="#020C12" stroke="black" stroke-width="0.3"/>
</svg>
