<svg width="100" height="100" viewBox="0 0 100 100" fill="none" xmlns="http://www.w3.org/2000/svg">
<path d="M36.1589 54.043V47.5293L39.4499 45.9297C39.7663 45.7754 39.9968 45.4883 40.0788 45.1445C40.1608 44.8008 40.0827 44.4414 39.8679 44.1621L35.9186 39.0215C35.791 38.8539 35.6202 38.7243 35.4245 38.6465L21.9577 33.2891C21.6794 33.1777 21.3689 33.1777 21.0905 33.2891L7.61786 38.6465C7.42186 38.7238 7.25091 38.8535 7.12371 39.0215L3.17254 44.1602C2.9577 44.4395 2.87957 44.8008 2.9616 45.1426C3.04364 45.4844 3.27215 45.7734 3.59051 45.9277L6.88153 47.5273V54.041C6.88153 54.4922 7.14129 54.9043 7.5495 55.0996L21.0163 61.5273V61.5254C21.1745 61.6016 21.3464 61.6406 21.5202 61.6406C21.6921 61.6406 21.864 61.6035 22.0241 61.5273L35.4909 55.0996C35.8991 54.9062 36.1589 54.4941 36.1589 54.043ZM26.0573 49.8359L23.2917 45.6484L34.5964 41.1504L37.1315 44.4492L26.0573 49.8359ZM21.5182 35.6387L31.8151 39.7363L21.5182 43.834L11.2214 39.7363L21.5182 35.6387ZM8.44207 41.1523L19.7487 45.6504L16.9831 49.8379L5.90887 44.4512L8.44207 41.1523ZM9.22332 48.6699L16.8796 52.3945C17.0436 52.4746 17.2194 52.5137 17.3913 52.5137C17.7741 52.5137 18.1472 52.3262 18.3698 51.9883L20.3464 48.9961V58.6152L9.22332 53.3066V48.6699ZM22.6901 58.6133V48.9941L24.6667 51.9863C24.7736 52.1481 24.9189 52.2807 25.0897 52.3724C25.2605 52.4641 25.4514 52.512 25.6452 52.5117C25.8171 52.5117 25.9929 52.4727 26.1569 52.3926L33.8132 48.668V53.3027L22.6901 58.6133ZM78.735 67.3945C76.5117 70.2659 73.8251 72.7466 70.7858 74.7344C70.526 74.9045 70.2093 74.9645 69.9053 74.9011C69.6013 74.8377 69.3349 74.6562 69.1647 74.3965C68.8093 73.8555 68.9616 73.1289 69.5026 72.7734C72.3247 70.9274 74.8192 68.6237 76.8835 65.957C77.28 65.4453 78.0163 65.3516 78.528 65.748C79.0397 66.1445 79.1315 66.8828 78.735 67.3945ZM28.1042 26.2637C34.3171 18.9785 43.3679 14.8008 52.9362 14.8008C62.3464 14.8008 71.2995 18.8652 77.4987 25.9531C77.6001 26.069 77.6776 26.2038 77.7268 26.3497C77.776 26.4956 77.7961 26.6497 77.7857 26.8033C77.7754 26.957 77.7349 27.107 77.6665 27.245C77.5982 27.383 77.5033 27.5061 77.3874 27.6074C77.2715 27.7088 77.1367 27.7863 76.9908 27.8355C76.845 27.8847 76.6908 27.9048 76.5372 27.8944C76.3836 27.8841 76.2335 27.8436 76.0955 27.7752C75.9576 27.7069 75.8344 27.612 75.7331 27.4961C69.9772 20.918 61.6686 17.1445 52.9343 17.1445C44.0554 17.1445 35.653 21.0234 29.8854 27.7852C29.7754 27.9144 29.6386 28.0182 29.4845 28.0894C29.3303 28.1605 29.1626 28.1973 28.9929 28.1973C28.7233 28.1973 28.4538 28.1055 28.2331 27.918C27.7429 27.4961 27.6843 26.7559 28.1042 26.2637ZM36.5964 74.3301C36.4898 74.4921 36.3445 74.625 36.1737 74.7167C36.0028 74.8084 35.8118 74.8561 35.6179 74.8555C35.3952 74.8555 35.1725 74.793 34.9733 74.6602C30.5124 71.7129 26.8073 67.6758 24.2565 62.9863C24.1082 62.7133 24.0742 62.3925 24.1621 62.0945C24.25 61.7964 24.4525 61.5454 24.7253 61.3965C24.8606 61.323 25.009 61.2768 25.1621 61.2607C25.3153 61.2446 25.4701 61.2588 25.6177 61.3025C25.7653 61.3462 25.9029 61.4186 26.0226 61.5155C26.1423 61.6124 26.2417 61.7319 26.3151 61.8672C28.6823 66.2207 32.1237 69.9687 36.2643 72.7051C36.3929 72.7899 36.5035 72.8992 36.5898 73.0268C36.6761 73.1544 36.7364 73.2978 36.7673 73.4487C36.7981 73.5997 36.7989 73.7552 36.7696 73.9064C36.7402 74.0576 36.6814 74.2016 36.5964 74.3301ZM66.196 66.8242H39.6765C39.03 66.8242 38.5046 67.3496 38.5046 67.9961V89.7578C38.5046 90.4043 39.03 90.9297 39.6765 90.9297H66.196C66.8425 90.9297 67.3679 90.4043 67.3679 89.7578V67.9961C67.3679 67.3477 66.8425 66.8242 66.196 66.8242ZM49.6218 69.168H56.2507V74.5996L53.6335 72.6562C53.4317 72.506 53.1868 72.4248 52.9352 72.4248C52.6837 72.4248 52.4388 72.506 52.237 72.6562L49.6218 74.5977V69.168ZM65.0241 88.584H40.8483V69.166H47.278V76.9277C47.2778 77.1448 47.338 77.3577 47.4517 77.5426C47.5655 77.7275 47.7284 77.8771 47.9223 77.9747C48.1162 78.0724 48.3334 78.1142 48.5497 78.0956C48.766 78.0769 48.9728 77.9985 49.1472 77.8691L52.9343 75.0566L56.7214 77.8691C56.8961 77.9984 57.1032 78.0767 57.3197 78.0953C57.5363 78.1139 57.7537 78.0721 57.9479 77.9746C58.142 77.8772 58.305 77.7276 58.4189 77.5427C58.5327 77.3578 58.5928 77.1449 58.5925 76.9277V69.166H65.0222V88.584H65.0241ZM20.5944 29.9102C20.8171 30.1953 21.1569 30.3613 21.5182 30.3613C21.8796 30.3613 22.2214 30.1953 22.4421 29.9102L29.5944 20.7266C29.8698 20.373 29.9186 19.8945 29.7233 19.4922C29.528 19.0898 29.1179 18.834 28.6706 18.834H25.5241V10.2441C25.5241 9.59766 24.9987 9.07227 24.3522 9.07227H18.6862C18.0397 9.07227 17.5143 9.59766 17.5143 10.2441V18.8359H14.3659C13.9186 18.8359 13.5104 19.0918 13.3132 19.4941C13.1159 19.8965 13.1667 20.375 13.4421 20.7285L20.5944 29.9102ZM18.6862 21.1797C19.3327 21.1797 19.8581 20.6543 19.8581 20.0078V11.416H23.1804V20.0078C23.1804 20.6543 23.7057 21.1797 24.3522 21.1797H26.2741L21.5202 27.2832L16.7663 21.1797H18.6862ZM97.069 37.8945C97.069 37.5898 96.9518 37.291 96.7292 37.0664L90.946 31.2832C90.8371 31.1748 90.708 31.089 90.5658 31.0306C90.4237 30.9723 90.2715 30.9427 90.1179 30.9434V30.9414H71.528C70.8815 30.9414 70.3561 31.4668 70.3561 32.1133V62.7383C70.3561 63.3848 70.8815 63.9102 71.528 63.9102H95.8991C96.5456 63.9102 97.071 63.3848 97.071 62.7383V37.8945H97.069ZM91.2878 34.9414L93.071 36.7246H91.2878V34.9414ZM72.6979 61.5644V33.2832H88.944V37.8945C88.944 38.541 89.4694 39.0664 90.1159 39.0664H94.7272V61.5644H72.6979ZM92.0319 44.3516C92.0319 44.998 91.5065 45.5234 90.8601 45.5234H76.8444C76.1979 45.5234 75.6725 44.998 75.6725 44.3516C75.6725 43.7051 76.1979 43.1797 76.8444 43.1797H90.8601C91.5085 43.1797 92.0319 43.7051 92.0319 44.3516ZM92.0319 50.4961C92.0319 51.1426 91.5065 51.668 90.8601 51.668H76.8444C76.1979 51.668 75.6725 51.1426 75.6725 50.4961C75.6725 49.8496 76.1979 49.3242 76.8444 49.3242H90.8601C91.5085 49.3242 92.0319 49.8496 92.0319 50.4961ZM92.0319 56.6406C92.0319 57.2871 91.5065 57.8125 90.8601 57.8125H76.8444C76.1979 57.8125 75.6725 57.2871 75.6725 56.6406C75.6725 55.9941 76.1979 55.4688 76.8444 55.4688H90.8601C91.5085 55.4688 92.0319 55.9922 92.0319 56.6406ZM75.6725 38.209C75.6725 37.5625 76.1979 37.0371 76.8444 37.0371H84.9577C85.6042 37.0371 86.1296 37.5625 86.1296 38.209C86.1296 38.8555 85.6042 39.3809 84.9577 39.3809H76.8444C76.1979 39.3809 75.6725 38.8555 75.6725 38.209Z" fill="black"/>
</svg>
