<svg width="124" height="168" viewBox="0 0 124 168" fill="none" xmlns="http://www.w3.org/2000/svg">
<g filter="url(#filter0_d_309_26413)">
<rect width="93.3333" height="116.667" rx="17.5" transform="matrix(-0.965926 -0.258819 -0.258819 0.965926 122.346 24.593)" fill="#DAF6FF"/>
<rect x="-0.446522" y="0.257799" width="92.6042" height="115.938" rx="17.1354" transform="matrix(-0.965926 -0.258819 -0.258819 0.965926 121.535 24.4862)" stroke="#F4F5F6" stroke-width="0.729167"/>
<g clip-path="url(#clip0_309_26413)">
<path d="M90.3058 77.0631C90.224 76.7998 90.0766 76.5617 89.8776 76.3709C89.6785 76.1801 89.4343 76.0429 89.1679 75.9723L81.9913 74.0493C80.712 73.7065 79.3922 74.4684 79.0494 75.7478C79.0426 75.7731 79.0339 75.7975 79.0244 75.8212L80.4904 70.35C80.701 69.5639 80.2328 68.7528 79.4467 68.5422L73.2333 66.8773L74.9363 60.5213C75.0986 59.9158 74.738 59.2912 74.1325 59.129L59.3496 55.1679C58.7442 55.0057 58.1194 55.3663 57.9572 55.9718L54.2601 69.7694L51.6305 69.0648L52.9754 64.0456C53.5927 64.2094 54.2287 63.8417 54.3941 63.2244L54.9507 61.147C55.1164 60.5288 54.7482 59.8911 54.13 59.7255L51.6015 59.048L53.2763 52.7975C53.4639 52.0975 53.047 51.3754 52.3469 51.1878L48.6984 50.2102L49.8175 46.0338C49.8785 45.8059 49.8466 45.563 49.7286 45.3587C49.6106 45.1543 49.4163 45.0052 49.1884 44.9442C48.9604 44.8831 48.7176 44.9151 48.5133 45.033C48.3089 45.151 48.1598 45.3453 48.0987 45.5733L46.9796 49.7498L43.3311 48.7722C42.6311 48.5846 41.9091 49.0015 41.7215 49.7015L40.0467 55.952L37.5179 55.2744C36.8998 55.1088 36.2621 55.4769 36.0965 56.0951L35.5398 58.1726C35.3744 58.7898 35.7413 59.4264 36.3578 59.5931L35.013 64.6122L33.4786 64.2011C33.2595 64.1419 33.0299 64.1326 32.8067 64.1739C32.5835 64.2152 32.3724 64.306 32.189 64.4397C32.0054 64.5723 31.8538 64.7444 31.7456 64.9433C31.6373 65.1423 31.575 65.363 31.5634 65.5891C31.3977 68.6781 32.1296 71.9302 33.68 74.9937C33.76 75.1531 33.7947 75.3315 33.7802 75.5094C33.7765 75.5569 33.7692 75.6036 33.7591 75.6493C33.758 75.6543 33.7573 75.6596 33.7561 75.6646C33.7455 75.7074 33.7321 75.7495 33.716 75.7905C33.713 75.7983 33.7109 75.8065 33.7076 75.8142C33.6915 75.8518 33.673 75.8883 33.6523 75.9235C33.6469 75.933 33.6429 75.9429 33.6371 75.9522C33.6103 75.9957 33.5803 76.0374 33.5466 76.0768L31.3804 78.6103C31.0121 79.0411 30.8924 79.6215 31.0603 80.1629C31.2283 80.7042 31.6553 81.1149 32.2028 81.2616L76.5062 93.1327C77.1161 93.2961 77.7734 93.0899 78.1805 92.6073L89.995 78.6084C90.1734 78.3982 90.2955 78.1462 90.3498 77.8759C90.4042 77.6056 90.3891 77.3259 90.3058 77.0631ZM72.7774 68.578L78.7161 70.1693L77.1778 75.9103L71.2391 74.319L72.7774 68.578ZM67.1355 59.0769L73.0741 60.6681L71.5325 66.4216L65.5939 64.8303L67.1355 59.0769ZM65.1382 66.5311L71.0768 68.1223L69.5385 73.8633L63.5999 72.2721L65.1382 66.5311ZM59.4964 57.03L65.435 58.6212L63.8934 64.3747L57.9547 62.7834L59.4964 57.03ZM57.499 64.4842L63.4377 66.0754L61.8994 71.8164L55.9607 70.2252L57.499 64.4842ZM43.3066 50.5884L51.4601 52.7731L49.9008 58.5924L41.7473 56.4077L43.3066 50.5884ZM37.6419 57.1304L53.0947 61.2709L52.8486 62.1892L43.2315 59.6123C43.006 59.5518 42.7657 59.5835 42.5635 59.7002C42.3613 59.8169 42.2138 60.0092 42.1533 60.2347C42.0929 60.4603 42.1246 60.7005 42.2413 60.9027C42.358 61.1049 42.5503 61.2525 42.7758 61.3129L51.2747 63.5902L49.9298 68.6092L36.7137 65.0679L38.0586 60.0489L38.7772 60.2415C39.0027 60.3019 39.243 60.2703 39.4452 60.1535C39.6474 60.0368 39.795 59.8445 39.8554 59.619C39.9158 59.3935 39.8842 59.1532 39.7674 58.951C39.6507 58.7488 39.4584 58.6013 39.2329 58.5408L37.3959 58.0486L37.6419 57.1304ZM80.6322 86.973L72.2028 84.7143C72.0911 84.6844 71.9747 84.6768 71.86 84.6919C71.7454 84.707 71.6349 84.7445 71.5348 84.8023C71.4347 84.8601 71.3469 84.9371 71.2766 85.0288C71.2062 85.1205 71.1546 85.2252 71.1246 85.3368C71.0947 85.4485 71.0871 85.565 71.1022 85.6796C71.1173 85.7942 71.1548 85.9047 71.2126 86.0048C71.2704 86.1049 71.3473 86.1927 71.439 86.2631C71.5308 86.3334 71.6354 86.3851 71.7471 86.415L79.3775 88.4596L76.8859 91.4118L32.842 79.6103L34.8848 77.221C34.927 77.1717 34.9668 77.121 35.005 77.0692C35.017 77.053 35.028 77.0363 35.0397 77.02C35.0651 76.9841 35.09 76.9481 35.1135 76.9112C35.1266 76.8907 35.139 76.8699 35.1516 76.8491C35.1859 76.7925 35.218 76.7346 35.248 76.6756C35.2539 76.6637 35.2608 76.6521 35.2667 76.6402L67.7484 85.3436C67.9739 85.4041 68.2142 85.3724 68.4164 85.2557C68.6186 85.139 68.7661 84.9467 68.8265 84.7212C68.887 84.4957 68.8553 84.2554 68.7386 84.0532C68.6218 83.851 68.4296 83.7034 68.2041 83.643L35.487 74.8765C35.4383 74.6413 35.3589 74.4134 35.2509 74.1989C33.869 71.4683 33.2162 68.7044 33.3084 65.9782L77.5689 77.8513C77.6168 77.8641 77.7604 77.8974 77.8081 77.9019C79.0874 78.2447 80.4071 77.4827 80.7499 76.2034C80.7941 76.0392 80.9017 75.8993 81.049 75.8142C81.1962 75.7292 81.3712 75.7061 81.5355 75.7499L88.5236 77.6224L80.6322 86.973Z" fill="black" stroke="black" stroke-width="0.2"/>
</g>
</g>
<defs>
<filter id="filter0_d_309_26413" x="-3.83529" y="0.436523" width="132.014" height="171.848" filterUnits="userSpaceOnUse" color-interpolation-filters="sRGB">
<feFlood flood-opacity="0" result="BackgroundImageFix"/>
<feColorMatrix in="SourceAlpha" type="matrix" values="0 0 0 0 0 0 0 0 0 0 0 0 0 0 0 0 0 0 127 0" result="hardAlpha"/>
<feMorphology radius="17.5" operator="erode" in="SourceAlpha" result="effect1_dropShadow_309_26413"/>
<feOffset dy="29.1667"/>
<feGaussianBlur stdDeviation="11.6667"/>
<feColorMatrix type="matrix" values="0 0 0 0 0.0583333 0 0 0 0 0.0583333 0 0 0 0 0.0583333 0 0 0 0.12 0"/>
<feBlend mode="multiply" in2="BackgroundImageFix" result="effect1_dropShadow_309_26413"/>
<feBlend mode="normal" in="SourceGraphic" in2="effect1_dropShadow_309_26413" result="shape"/>
</filter>
<clipPath id="clip0_309_26413">
<rect width="60" height="60" fill="white" transform="translate(40.5293 32) rotate(15)"/>
</clipPath>
</defs>
</svg>
