<svg width="124" height="168" viewBox="0 0 124 168" fill="none" xmlns="http://www.w3.org/2000/svg">
<g filter="url(#filter0_d_309_26423)">
<rect x="2" y="24.0702" width="93" height="117" rx="17.5" transform="rotate(-15 2 24.0702)" fill="#DAF6FF"/>
<rect x="2.44652" y="24.328" width="92.2708" height="116.271" rx="17.1354" transform="rotate(-15 2.44652 24.328)" stroke="#F4F5F6" stroke-width="0.729167"/>
<g clip-path="url(#clip0_309_26423)">
<path d="M81.5122 53.2701L86.1548 45.1534C86.2225 45.0349 86.2618 44.9022 86.2694 44.7659C86.2769 44.6297 86.2527 44.4935 86.1985 44.3682C86.1443 44.2429 86.0617 44.1319 85.9572 44.0441C85.8527 43.9563 85.7291 43.894 85.5964 43.8622L61.6795 38.1388C61.4953 38.0947 61.3017 38.1114 61.1277 38.1862C60.9537 38.261 60.8085 38.3901 60.7138 38.5541L56.0204 46.6832L47.8919 41.9902C47.7284 41.8943 47.538 41.8545 47.3497 41.8767C47.1614 41.8989 46.9855 41.9819 46.8488 42.1132L41.1148 47.545C41.031 47.6243 40.9637 47.7194 40.9167 47.8249C40.8698 47.9303 40.8442 48.044 40.8415 48.1593C40.8352 48.394 40.9205 48.6174 41.0814 48.7878C41.1905 48.9026 41.3286 48.986 41.481 49.029C41.6334 49.0721 41.7947 49.0733 41.9477 49.0326C42.0881 48.995 42.2188 48.9211 42.3242 48.8213L47.5808 43.84L54.8817 48.0552L38.3089 63.7227L31.0572 59.4966L39.7717 51.2389C39.856 51.1601 39.9238 51.0652 39.971 50.9599C40.0182 50.8545 40.0438 50.7408 40.0465 50.6254C40.0528 50.3908 39.9674 50.1674 39.8054 49.9973C39.6966 49.8823 39.5588 49.7988 39.4065 49.7557C39.2543 49.7126 39.0931 49.7114 38.9402 49.7523C38.7999 49.7899 38.6703 49.8633 38.5637 49.9635L28.9978 59.0282C28.8986 59.1221 28.8226 59.2378 28.7759 59.3661C28.7292 59.4945 28.7131 59.6319 28.7288 59.7676C28.745 59.903 28.7923 60.0328 28.8671 60.1469C28.9418 60.261 29.042 60.3561 29.1597 60.4249L37.2381 65.1336L32.5957 73.2501C32.528 73.3686 32.4888 73.5013 32.4812 73.6376C32.4736 73.7739 32.4978 73.9101 32.552 74.0354C32.6062 74.1607 32.6888 74.2716 32.7934 74.3594C32.8979 74.4472 33.0214 74.5095 33.1542 74.5413L40.6098 76.3254L44.7148 91.6456C44.7225 91.6749 44.7318 91.7037 44.7425 91.7318C44.7471 91.7438 44.7527 91.7552 44.7576 91.767C44.7638 91.7812 44.7694 91.7956 44.7763 91.8094C44.7848 91.8269 44.7946 91.8434 44.8042 91.8602C44.8087 91.8678 44.8126 91.8757 44.8173 91.8833C44.8277 91.9001 44.8392 91.916 44.8507 91.9321C44.8557 91.9393 44.8604 91.9466 44.8657 91.9536C44.8766 91.9679 44.8883 91.9811 44.8999 91.9945C44.9071 92.0029 44.9139 92.0114 44.9214 92.0195C44.9316 92.0303 44.9424 92.0404 44.9529 92.0507C44.9631 92.0605 44.9729 92.0705 44.9834 92.0799C44.9922 92.0876 45.0016 92.0947 45.0107 92.1021C45.0239 92.1127 45.037 92.1236 45.0509 92.1338C45.0586 92.1393 45.0668 92.1442 45.0746 92.1495C45.0903 92.1601 45.106 92.1707 45.1224 92.1802C45.1309 92.1851 45.1399 92.1893 45.1486 92.1941C45.1647 92.2027 45.1807 92.2116 45.1974 92.2192C45.2136 92.2266 45.2303 92.2328 45.2468 92.2392C45.2566 92.243 45.2658 92.2473 45.2758 92.2509C45.3046 92.2608 45.3339 92.2693 45.3636 92.2763L69.3292 97.9828C69.3638 97.9912 69.3991 97.9971 69.4348 98.0013C69.4425 98.0022 69.4503 98.0028 69.4581 98.0033C69.484 98.0057 69.51 98.007 69.5363 98.0069C69.5457 98.0069 69.5551 98.007 69.5644 98.0066C69.5897 98.0058 69.615 98.0038 69.6404 98.0007C69.6491 97.9996 69.6576 97.999 69.6663 97.9978C69.6992 97.9929 69.7322 97.9866 69.7651 97.9777C69.7981 97.9689 69.8298 97.9579 69.8608 97.9457C69.8689 97.9424 69.8767 97.9386 69.8848 97.9352C69.9167 97.9216 69.9478 97.906 69.9779 97.8886C70.0006 97.8754 70.0226 97.8614 70.0437 97.8464C70.0502 97.842 70.0566 97.8376 70.0629 97.833C70.0916 97.8115 70.1192 97.7888 70.1449 97.7642L88.0465 80.8395C88.0687 80.8186 88.0899 80.7965 88.1099 80.7735C88.1167 80.7655 88.1227 80.757 88.1291 80.7489C88.1403 80.735 88.1517 80.7213 88.1619 80.7069C88.1726 80.6919 88.182 80.6763 88.1917 80.6607C88.1968 80.6522 88.2025 80.6442 88.2074 80.6356C88.2168 80.6192 88.2251 80.6021 88.2334 80.5851C88.2375 80.5766 88.2422 80.5683 88.2461 80.5596C88.2531 80.5441 88.259 80.528 88.265 80.5121C88.2692 80.5011 88.2739 80.4903 88.2776 80.4793C88.282 80.4658 88.2855 80.4524 88.2894 80.4387C88.2935 80.4245 88.2978 80.4104 88.3011 80.3959C88.3036 80.3852 88.3052 80.3744 88.3072 80.3636C88.3106 80.3462 88.3141 80.3289 88.3163 80.311C88.3175 80.3023 88.3179 80.2936 88.3187 80.2849C88.3206 80.2654 88.3225 80.2458 88.3231 80.226C88.3235 80.2172 88.3229 80.2083 88.3229 80.1993C88.3229 80.1801 88.323 80.1609 88.3217 80.1414C88.3208 80.126 88.3185 80.1108 88.3167 80.0954C88.3151 80.0827 88.3144 80.07 88.3122 80.0574C88.3074 80.0276 88.301 79.998 88.2931 79.9688L84.188 64.6486L89.7524 59.376C89.8514 59.2819 89.9272 59.1662 89.9739 59.0379C90.0205 58.9096 90.0368 58.7723 90.0214 58.6366C90.0053 58.5011 89.9581 58.3711 89.8835 58.2569C89.8089 58.1426 89.7089 58.0471 89.5913 57.9778L81.5122 53.2701ZM61.9082 40.0011L84.0466 45.2988L79.8795 52.5843L57.6933 47.3015L61.9082 40.0011ZM41.5236 74.7368L34.7038 73.1048L38.8709 65.8193L61.0572 71.102L56.8422 78.4024L41.5319 74.7387C41.5291 74.738 41.5264 74.7373 41.5236 74.7368ZM68.3073 95.9323L46.2776 90.6868L42.5542 76.7907L57.0711 80.2647C57.2553 80.3088 57.4488 80.2922 57.6228 80.2173C57.7968 80.1425 57.942 80.0135 58.0368 79.8494L62.1083 72.7973L68.3073 95.9323ZM62.1494 69.5551L40.222 64.334L56.6016 48.8485L78.529 54.0696L62.1494 69.5551ZM82.6056 63.7271C82.6016 63.7307 82.5977 63.7344 82.5939 63.7381L78.9786 67.1639C78.8943 67.243 78.8266 67.3381 78.7795 67.4436C78.7323 67.5491 78.7067 67.663 78.7042 67.7786C78.7008 67.894 78.7202 68.0089 78.7614 68.1168C78.8026 68.2247 78.8647 68.3233 78.9442 68.4071C79.1047 68.576 79.3257 68.6743 79.5586 68.6806C79.7916 68.6868 80.0175 68.6005 80.1869 68.4405L82.7372 66.0239L86.4607 79.9201L70.0052 95.4775L63.8061 72.3419L70.8587 76.4138C70.9585 76.4719 71.0688 76.5096 71.1832 76.5247C71.2977 76.5399 71.414 76.5322 71.5254 76.5021C71.6658 76.4644 71.7953 76.3909 71.9019 76.2908L77.6355 70.8577C77.7195 70.7785 77.7869 70.6835 77.8338 70.578C77.8808 70.4725 77.9063 70.3588 77.9089 70.2434C77.9151 70.0088 77.8301 69.7865 77.6692 69.6161C77.5601 69.5009 77.4218 69.4174 77.2691 69.3744C77.1165 69.3314 76.955 69.3305 76.8018 69.3717C76.6626 69.409 76.5316 69.4817 76.4264 69.5827L71.1695 74.5627L63.8689 70.3488L80.4415 54.68L87.6933 58.9061L82.6056 63.7271Z" fill="black" stroke="black" stroke-width="0.3"/>
</g>
</g>
<defs>
<filter id="filter0_d_309_26423" x="-3.83333" y="0" width="131.78" height="172.083" filterUnits="userSpaceOnUse" color-interpolation-filters="sRGB">
<feFlood flood-opacity="0" result="BackgroundImageFix"/>
<feColorMatrix in="SourceAlpha" type="matrix" values="0 0 0 0 0 0 0 0 0 0 0 0 0 0 0 0 0 0 127 0" result="hardAlpha"/>
<feMorphology radius="17.5" operator="erode" in="SourceAlpha" result="effect1_dropShadow_309_26423"/>
<feOffset dy="29.1667"/>
<feGaussianBlur stdDeviation="11.6667"/>
<feColorMatrix type="matrix" values="0 0 0 0 0.0583333 0 0 0 0 0.0583333 0 0 0 0 0.0583333 0 0 0 0.12 0"/>
<feBlend mode="multiply" in2="BackgroundImageFix" result="effect1_dropShadow_309_26423"/>
<feBlend mode="normal" in="SourceGraphic" in2="effect1_dropShadow_309_26423" result="shape"/>
</filter>
<clipPath id="clip0_309_26423">
<rect width="60" height="60" fill="white" transform="translate(25.2578 47.7867) rotate(-15)"/>
</clipPath>
</defs>
</svg>
