<svg width="109" height="156" viewBox="0 0 109 156" fill="none" xmlns="http://www.w3.org/2000/svg">
<g filter="url(#filter0_d_309_26428)">
<rect x="5.02344" y="5.07275" width="93.3333" height="116.667" rx="17.5" transform="rotate(-3.06229 5.02344 5.07275)" fill="#DAF6FF"/>
<rect x="5.40698" y="5.41734" width="92.6042" height="115.938" rx="17.1354" transform="rotate(-3.06229 5.40698 5.41734)" stroke="#F4F5F6" stroke-width="0.729167"/>
<path d="M54.4874 48.6648C54.2803 48.6648 54.1422 48.5958 54.0041 48.4577C53.728 48.1816 53.728 47.7674 54.0041 47.4913L54.4183 47.077C54.7635 46.6628 54.7635 46.0415 54.4183 45.6963C54.0732 45.3512 53.4518 45.3512 53.0376 45.6963L50.7595 47.9745C50.4833 48.2506 50.0691 48.2506 49.793 47.9745C49.5168 47.6984 49.5168 47.2841 49.793 47.008L52.0711 44.7299C53.0376 43.8324 54.4874 43.8324 55.3848 44.7299C56.2823 45.6273 56.2823 47.077 55.3848 48.0435L54.9706 48.4577C54.8325 48.5958 54.6945 48.6648 54.4874 48.6648ZM45.5128 47.6293C45.3057 47.6293 45.1676 47.5603 45.0296 47.4222C44.7534 47.1461 44.7534 46.7319 45.0296 46.4557L45.7199 45.7654C46.0651 45.3512 46.0651 44.7299 45.7199 44.3847C45.3747 44.0395 44.6844 44.0395 44.3392 44.3847L41.7849 46.939C41.5088 47.2151 41.0946 47.2151 40.8184 46.939C40.5423 46.6628 40.5423 46.2486 40.8184 45.9725L43.3727 43.4182C44.2011 42.5898 45.858 42.5898 46.6864 43.4182C47.5839 44.3156 47.5839 45.7654 46.6864 46.7319L45.9961 47.4222C45.858 47.5603 45.7199 47.6293 45.5128 47.6293Z" fill="black" stroke="black" stroke-width="0.4"/>
<path d="M51.7257 59.2963C51.5877 59.2963 51.4496 59.2273 51.3115 59.1582C47.1694 56.3968 39.9898 52.3238 34.1909 49.9766C33.9837 49.9075 33.7766 49.7695 33.5695 49.5624C32.8102 48.803 32.8102 47.6294 33.5695 46.801L33.6386 46.7319C34.7431 45.6964 36.2619 45.2132 37.8497 45.3512L54.4871 47.2842L60.7693 48.3197C61.1145 48.3888 61.3906 48.7339 61.3216 49.0791C61.2526 49.4243 60.9074 49.7004 60.5622 49.6314L54.28 48.5959L37.7116 46.7319C36.538 46.5939 35.4335 47.0081 34.536 47.7675C34.3289 48.0436 34.3289 48.3888 34.536 48.5959C34.6051 48.6649 34.6741 48.6649 34.7431 48.7339C40.5421 51.0811 47.8598 55.2232 52.0709 58.0537C52.4161 58.2608 52.4851 58.675 52.278 59.0202C52.14 59.1582 51.9328 59.2963 51.7257 59.2963ZM68.9155 66.4069C68.7084 66.4069 68.5703 66.3379 68.4322 66.1998C68.1561 65.9237 68.1561 65.5094 68.4322 65.2333L70.7104 62.9552C71.0555 62.5409 71.0555 61.9196 70.7104 61.5745C70.3652 61.2293 69.7439 61.2293 69.3297 61.5745L68.9155 61.9887C68.6393 62.2648 68.2251 62.2648 67.949 61.9887C67.6728 61.7125 67.6728 61.2983 67.949 61.0222L68.3632 60.608C69.3297 59.7105 70.7794 59.7105 71.6769 60.608C72.5743 61.5054 72.5743 62.9552 71.6769 63.9216L69.3987 66.1998C69.2606 66.3379 69.1226 66.4069 68.9155 66.4069ZM69.951 75.3124C69.7439 75.3124 69.6058 75.2434 69.4677 75.1053C69.1916 74.8292 69.1916 74.415 69.4677 74.1388L71.953 71.5845C72.2982 71.1703 72.2982 70.549 71.953 70.2038C71.6078 69.8587 70.9865 69.8587 70.5723 70.2038L69.8819 70.8942C69.6058 71.1703 69.1916 71.1703 68.9155 70.8942C68.6393 70.618 68.6393 70.2038 68.9155 69.9277L69.6058 69.2373C70.5723 68.3399 72.022 68.3399 72.9195 69.2373C73.8169 70.1348 73.8169 71.5845 72.9195 72.551L70.4342 75.1053C70.2962 75.2434 70.1581 75.3124 69.951 75.3124Z" fill="black" stroke="black" stroke-width="0.4"/>
<path d="M68.1566 82.9063C67.6733 82.9063 67.121 82.6992 66.7759 82.354C66.5687 82.1469 66.4307 81.9398 66.3616 81.7327C63.9454 75.8648 59.8723 68.478 57.0419 64.1978C56.8348 63.8527 56.9038 63.4385 57.249 63.2314C57.5942 63.0243 58.0084 63.0933 58.2155 63.4385C61.115 67.7877 65.2571 75.2434 67.6733 81.1805C67.7423 81.2495 67.7423 81.3185 67.8114 81.3876C68.0185 81.5947 68.4327 81.5947 68.6398 81.3876C69.4682 80.5591 69.8824 79.3855 69.7444 78.2119L67.8114 61.5055L66.8449 54.9472C66.7758 54.602 67.052 54.1878 67.3972 54.1878C67.7423 54.1187 68.1566 54.3949 68.1566 54.7401L69.123 61.2984L71.056 78.0048C71.1941 79.5926 70.6418 81.1805 69.5373 82.285C69.1921 82.7683 68.6398 82.9063 68.1566 82.9063ZM42.8207 71.9298C42.6826 71.9298 42.5446 71.8607 42.4065 71.7917L35.0198 66.8212C34.6746 66.545 34.4675 66.1308 34.3984 65.7166C34.3984 65.3024 34.5365 64.9572 34.8126 64.6121L36.0553 63.3694C36.4695 62.9552 36.8837 62.9552 37.2289 62.9552H37.3669L45.2369 64.8882C45.5821 64.9572 45.8582 65.3714 45.7202 65.7166C45.6511 66.0618 45.2369 66.3379 44.8918 66.1999L37.2289 64.405H37.0908L35.8482 65.6476L43.2349 70.6871C43.5801 70.8942 43.6491 71.3085 43.442 71.6536C43.2349 71.7917 43.0278 71.9298 42.8207 71.9298ZM50.6217 81.6637H50.4146C50.0003 81.5947 49.6552 81.3876 49.4481 81.0424L44.0633 73.0343C43.8562 72.6892 43.9253 72.2749 44.2704 72.0678C44.6156 71.8607 45.0298 71.9298 45.2369 72.2749L50.6217 80.214L51.7953 79.0404L49.4481 70.8252C49.31 70.48 49.5861 70.0658 49.9313 69.9968C50.2765 69.9278 50.6907 70.1349 50.7597 70.48L53.1069 78.6952C53.245 79.1094 53.1069 79.6617 52.6927 80.0759L51.4501 81.3185C51.312 81.5256 50.9668 81.6637 50.6217 81.6637Z" fill="black" stroke="black" stroke-width="0.4"/>
<path d="M45.513 73.1033C45.3059 73.1033 45.0298 73.1033 44.8227 73.0343C44.4775 72.9652 44.2014 72.62 44.2704 72.2749C44.3394 71.9297 44.6846 71.6536 45.0298 71.7226C46.4795 71.9297 48.8957 70.9632 49.5861 70.2729L72.5747 49.2862C74.8529 47.0771 76.6478 42.4517 75.2671 41.002C74.9219 40.6568 74.3696 40.4497 73.6103 40.5188C71.5392 40.5188 68.5017 41.9685 66.8448 43.6253L45.5821 66.1308C44.8917 66.8211 43.8562 69.0993 44.1323 70.618C44.2014 70.9632 43.9252 71.3774 43.58 71.3774C43.2349 71.4464 42.8207 71.1703 42.8207 70.8251C42.4755 68.8231 43.7181 66.1308 44.6846 65.1643L65.9474 42.5898C67.8804 40.5878 71.2631 39.069 73.6793 39H73.7483C74.8529 39 75.7503 39.2761 76.3717 39.8975C78.5808 42.1756 76.3026 47.5603 73.6793 50.1146L50.6216 71.1703C49.7932 72.0678 47.446 73.1033 45.513 73.1033Z" fill="black" stroke="black" stroke-width="0.4"/>
<path d="M72.2294 46.5248C71.8842 46.5248 71.539 46.2486 71.539 45.9035C71.47 45.2822 70.9867 44.8679 70.2964 44.7989H70.1583C69.7441 44.7989 69.468 44.5228 69.468 44.1086C69.468 43.6944 69.7441 43.4182 70.1583 43.4182H70.3654C71.8151 43.4872 72.8507 44.4537 72.9197 45.7654C72.9197 46.1796 72.6436 46.5248 72.2294 46.5248ZM42.4753 75.0362C41.992 75.0362 41.5088 74.8291 41.1636 74.484C40.8184 74.1388 40.6113 73.7246 40.6113 73.2413C40.6113 72.7581 40.8184 72.2748 41.0946 71.9297L45.0296 67.9947C45.6509 67.3734 46.9625 67.3734 47.5839 67.9947C47.929 68.3398 48.0671 68.7541 48.0671 69.3063C48.0671 69.8586 47.86 70.2728 47.5839 70.618L43.6489 74.553C43.4418 74.8291 42.9585 75.0362 42.4753 75.0362ZM46.4103 68.8921C46.2722 68.8921 46.2032 68.9612 46.1341 69.0302L42.1991 72.9652C42.1301 73.0342 42.0611 73.1723 42.0611 73.2413C42.0611 73.3794 42.1301 73.4484 42.1991 73.5175C42.4062 73.7246 42.6133 73.7246 42.7514 73.5865L46.7554 69.5825C46.8245 69.5134 46.8935 69.3754 46.8935 69.3063C46.8935 69.2373 46.8245 69.0992 46.7554 69.0302C46.6174 68.8921 46.4793 68.8921 46.4103 68.8921Z" fill="black" stroke="black" stroke-width="0.4"/>
</g>
<defs>
<filter id="filter0_d_309_26428" x="-0.809896" y="0.086792" width="111.098" height="156.486" filterUnits="userSpaceOnUse" color-interpolation-filters="sRGB">
<feFlood flood-opacity="0" result="BackgroundImageFix"/>
<feColorMatrix in="SourceAlpha" type="matrix" values="0 0 0 0 0 0 0 0 0 0 0 0 0 0 0 0 0 0 127 0" result="hardAlpha"/>
<feMorphology radius="17.5" operator="erode" in="SourceAlpha" result="effect1_dropShadow_309_26428"/>
<feOffset dy="29.1667"/>
<feGaussianBlur stdDeviation="11.6667"/>
<feColorMatrix type="matrix" values="0 0 0 0 0.0583333 0 0 0 0 0.0583333 0 0 0 0 0.0583333 0 0 0 0.12 0"/>
<feBlend mode="multiply" in2="BackgroundImageFix" result="effect1_dropShadow_309_26428"/>
<feBlend mode="normal" in="SourceGraphic" in2="effect1_dropShadow_309_26428" result="shape"/>
</filter>
</defs>
</svg>
