<svg width="123" height="167" viewBox="0 0 123 167" fill="none" xmlns="http://www.w3.org/2000/svg">
<g filter="url(#filter0_d_309_26406)">
<g clip-path="url(#clip0_309_26406)">
<rect x="2" y="23.9839" width="92.6667" height="115.833" rx="17.375" transform="rotate(-15 2 23.9839)" fill="#DAF6FF"/>
<g clip-path="url(#clip1_309_26406)">
<path d="M83.7676 73.8779L85.4314 73.4321L85.8587 75.0266L84.1948 75.4725L83.7676 73.8779ZM86.3443 73.1875L88.0081 72.7417L88.4354 74.3362L86.7715 74.782L86.3443 73.1875ZM88.9325 72.494L90.5963 72.0482L91.0236 73.6427L89.3597 74.0885L88.9325 72.494Z" fill="#020C12" stroke="#020C12" stroke-width="0.4"/>
<path d="M95.8986 74.1816C95.6501 73.9014 95.2593 73.7832 94.8896 73.8823L93.6301 74.2198L89.8065 59.9499C89.6525 59.4214 89.1104 59.1085 88.582 59.2624L73.8961 63.1975L73.4905 61.6839C73.4039 61.3603 73.0815 61.1742 72.758 61.2609C72.4345 61.3476 72.2484 61.6699 72.3351 61.9935L72.9481 64.2813C72.952 64.3421 72.9675 64.3999 72.983 64.4577L74.9459 71.7833L73.7673 72.0991L68.3554 51.9017C68.1666 51.1968 67.434 50.7739 66.7292 50.9628L65.7008 51.2383C64.996 51.4272 64.5731 52.1597 64.7619 52.8645L70.115 72.8424L64.2678 70.0623L53.1052 51.0962L52.1076 49.4068L52.1014 49.3837C51.7497 48.8338 51.2319 48.4104 50.6232 48.1749C50.0145 47.9393 49.3465 47.904 48.7164 48.0739L31.2227 52.7614C29.5819 53.201 28.6092 54.8858 29.0488 56.5266L32.9251 70.9929L32.6362 71.0703C31.5501 71.3614 30.9072 72.4748 31.1983 73.561L36.5235 93.4349C36.6102 93.7584 36.9325 93.9445 37.256 93.8578L38.4461 93.5389C39.5382 95.6736 42.1406 96.5119 44.2753 95.4198C45.8001 94.6397 46.7105 93.0459 46.6268 91.3469L59.8915 87.7926C62.5068 90.4356 66.7642 90.4713 69.4187 87.8529C70.2807 87.0027 70.8981 85.9332 71.2034 84.7616L72.5438 84.4025C73.341 84.1888 73.8826 83.4369 73.8338 82.6078C73.9209 82.6093 74.0164 82.5961 74.0973 82.5744L75.1257 82.2989C75.8274 82.0984 76.2503 81.3659 76.0615 80.6611L75.851 79.8754L76.9718 79.575L77.072 79.672L77.2981 80.5155C77.4807 81.1972 78.1839 81.6032 78.8657 81.4206L93.5978 77.4731C93.6902 77.4483 93.7765 77.4005 93.845 77.3326L95.9255 75.4376C95.9971 75.3813 96.0625 75.3018 96.0871 75.2086C96.2176 74.864 96.147 74.4618 95.8986 74.1816ZM75.5804 69.4832L80.2138 68.2417L80.5605 69.5358C80.6472 69.8594 80.9695 70.0454 81.2931 69.9588L85.1639 68.9216C85.4874 68.8349 85.6735 68.5126 85.5868 68.189L85.24 66.8949L90.0814 65.5977L92.4747 74.5294L77.9736 78.4149L75.5804 69.4832ZM81.0596 66.7766L79.9946 62.8019L82.7099 62.0743L84.2765 67.9209L81.5612 68.6485L81.0596 66.7766ZM89.7718 64.4422L84.9304 65.7395L83.8654 61.7647L88.7068 60.4674L89.7718 64.4422ZM78.8391 63.1115L79.9042 67.0862L75.2708 68.3278L74.2057 64.353L78.8391 63.1115ZM30.2043 56.217C29.9349 55.2117 30.527 54.1862 31.5323 53.9168L49.1646 49.1922C49.908 49.055 50.6651 49.3846 51.082 50.016L51.6734 51.0216L30.3436 56.7369L30.2043 56.217ZM30.6563 57.9039L52.3096 52.102L63.1734 70.5537L62.6946 71.5861L53.4268 64.8679L54.5464 62.9456C54.7187 62.6641 54.6196 62.2944 54.3266 62.1252C54.0483 61.9645 53.6785 62.0636 53.5178 62.3419L50.7087 67.1566C50.5511 67.4466 50.6471 67.8047 50.9286 67.977C51.072 68.05 51.2377 68.0676 51.3879 68.0273C51.5381 67.9871 51.6728 67.8891 51.7489 67.7572L52.8263 65.9081L62.1735 72.6917L60.4035 76.4849L52.9132 78.6653L51.3559 72.8533L52.026 72.6738C53.0166 72.396 53.6118 71.382 53.3687 70.3821C53.2387 69.8968 52.9299 69.4841 52.502 69.2273C52.0709 68.9589 51.5561 68.8863 51.0708 69.0163L45.6824 70.3982L42.4589 66.2711C41.7952 65.4582 40.6123 65.3417 39.7963 65.9938C39.015 66.6366 38.8745 67.7765 39.4773 68.5933L43.478 73.7258L41.8719 74.1561C41.017 71.2892 38.0438 69.6214 35.1551 70.3954L34.0805 70.6833L30.6563 57.9039ZM49.5347 79.6449L42.6884 77.1572L42.1931 75.3085L50.2004 73.1629L51.7639 78.998L49.5347 79.6449ZM44.6811 73.3167L40.4196 67.8578C40.1881 67.5483 40.233 67.1152 40.5425 66.8837C40.852 66.6522 41.2851 66.6971 41.5166 67.0066L44.9717 71.4432C45.1199 71.6264 45.365 71.7093 45.5961 71.6474L51.3689 70.1749C51.5422 70.1284 51.7341 70.1513 51.8837 70.2475C52.0448 70.3405 52.1606 70.4953 52.2101 70.6801C52.2977 71.053 52.0777 71.4339 51.7049 71.5214L44.6811 73.3167ZM43.1092 94.5805C41.7804 94.9366 40.3697 94.3858 39.6362 93.22C39.4957 92.9728 39.3752 92.7079 39.3009 92.4306C39.2699 92.3151 39.2536 92.208 39.2342 92.0893C39.0135 90.5261 39.9957 89.0617 41.524 88.6646C43.0462 88.2443 44.629 89.0215 45.2195 90.4856C45.262 90.598 45.3014 90.6989 45.3324 90.8145C45.4067 91.0918 45.4348 91.3815 45.4367 91.6658C45.3844 93.0421 44.438 94.2245 43.1092 94.5805ZM66.1144 88.4163C64.4275 88.8683 62.634 88.5067 61.2665 87.4242C60.9047 87.1372 60.5799 86.8032 60.2982 86.4452C59.8915 85.8979 59.5879 85.2733 59.4115 84.6147C58.6436 81.7491 60.3954 78.7658 63.3187 77.9825C66.242 77.1992 69.2623 78.9039 70.0301 81.7694C70.2066 82.428 70.256 83.1207 70.1774 83.7981C70.1125 84.249 69.9982 84.7006 69.8284 85.13C69.1854 86.7513 67.8045 87.9758 66.1144 88.4163ZM72.6232 82.5731C72.6891 82.865 72.5199 83.1581 72.2342 83.247L71.4022 83.4699C71.4315 82.7933 71.3621 82.1184 71.1856 81.4598C70.2444 77.9472 66.5795 75.8703 63.0091 76.827C59.4387 77.7837 57.3148 81.4117 58.256 84.9243C58.4325 85.5829 58.7098 86.2021 59.0735 86.7734L46.3865 90.1729C45.5277 87.9385 43.0252 86.8258 40.7908 87.6845C38.8823 88.4188 37.7488 90.382 38.0672 92.402L37.5241 92.5475L32.3537 73.2513C32.233 72.8007 32.4952 72.3465 32.9458 72.2258L35.4647 71.5509C37.7179 70.9471 40.0434 72.2312 40.7165 74.4657C40.7288 74.512 40.7528 74.5551 40.7652 74.6013L41.6135 77.7673C41.663 77.9521 41.8019 78.1007 41.98 78.1644L49.0221 80.7358L49.3111 80.8441C49.4337 80.8856 49.5586 80.8893 49.6857 80.8552L53.2228 79.8208L60.9988 77.5514C61.1606 77.5081 61.3007 77.3839 61.3706 77.2289L64.1352 71.3239L70.4096 74.3115L72.6232 82.5731ZM74.906 80.9707C74.9246 81.04 74.8823 81.1133 74.8161 81.1434L73.7877 81.4189C73.7153 81.426 73.642 81.3837 73.6235 81.3143L65.9174 52.5549C65.8988 52.4856 65.9411 52.4123 66.0104 52.3938L67.0388 52.1182C67.1081 52.0996 67.1814 52.1419 67.2 52.2113L74.906 80.9707ZM74.0769 73.2546L75.1399 72.9697L76.6044 78.4351L75.5413 78.7199L74.0769 73.2546ZM93.1495 76.3548L78.5561 80.2651C78.5098 80.2775 78.4659 80.2521 78.4535 80.2059L78.2832 79.5704L94.3441 75.2669L93.1495 76.3548Z" fill="#020C12" stroke="#020C12" stroke-width="0.4"/>
<path d="M63.8852 80.0477C62.1173 80.5214 61.0623 82.315 61.5267 84.0482C61.9657 85.8253 63.7655 86.9035 65.5426 86.4645C67.3197 86.0254 68.3979 84.2257 67.9589 82.4485C67.5198 80.6714 65.7201 79.5932 63.9429 80.0322L63.8852 80.0477ZM65.2629 85.1895C64.1475 85.4636 63.0278 84.7977 62.7537 83.6822C62.4796 82.5668 63.1456 81.4472 64.261 81.1731C65.3533 80.9051 66.4699 81.5595 66.7609 82.6457C67.0466 83.758 66.3752 84.9039 65.2629 85.1895ZM41.8251 89.7854C40.8052 90.0463 40.2046 91.0865 40.4655 92.1064C40.7264 93.1263 41.7666 93.7269 42.7865 93.466C43.8064 93.2051 44.407 92.1649 44.1461 91.145L44.143 91.1334C43.8736 90.1282 42.8334 89.5276 41.8251 89.7854ZM42.4969 92.2928C42.1187 92.4065 41.7378 92.1866 41.6241 91.8084C41.5103 91.4302 41.7303 91.0492 42.1085 90.9355C42.4867 90.8218 42.8676 91.0417 42.9813 91.4199L42.9875 91.443C43.0866 91.8128 42.8667 92.1937 42.4969 92.2928Z" fill="#020C12" stroke="#020C12" stroke-width="0.4"/>
</g>
</g>
<rect x="2.44333" y="24.2398" width="91.9427" height="115.109" rx="17.013" transform="rotate(-15 2.44333 24.2398)" stroke="#F4F5F6" stroke-width="0.723958"/>
</g>
<defs>
<filter id="filter0_d_309_26406" x="-3.79167" y="0" width="131.072" height="170.62" filterUnits="userSpaceOnUse" color-interpolation-filters="sRGB">
<feFlood flood-opacity="0" result="BackgroundImageFix"/>
<feColorMatrix in="SourceAlpha" type="matrix" values="0 0 0 0 0 0 0 0 0 0 0 0 0 0 0 0 0 0 127 0" result="hardAlpha"/>
<feMorphology radius="17.375" operator="erode" in="SourceAlpha" result="effect1_dropShadow_309_26406"/>
<feOffset dy="28.9583"/>
<feGaussianBlur stdDeviation="11.5833"/>
<feColorMatrix type="matrix" values="0 0 0 0 0.0583333 0 0 0 0 0.0583333 0 0 0 0 0.0583333 0 0 0 0.12 0"/>
<feBlend mode="multiply" in2="BackgroundImageFix" result="effect1_dropShadow_309_26406"/>
<feBlend mode="normal" in="SourceGraphic" in2="effect1_dropShadow_309_26406" result="shape"/>
</filter>
<clipPath id="clip0_309_26406">
<rect x="2" y="23.9839" width="92.6667" height="115.833" rx="17.375" transform="rotate(-15 2 23.9839)" fill="white"/>
</clipPath>
<clipPath id="clip1_309_26406">
<rect width="66.2279" height="66.2279" fill="white" transform="translate(21 44.141) rotate(-15)"/>
</clipPath>
</defs>
</svg>
