<svg width="116" height="161" viewBox="0 0 116 161" fill="none" xmlns="http://www.w3.org/2000/svg">
<g filter="url(#filter0_d_309_26418)">
<rect x="19.8672" width="93.3333" height="116.667" rx="17.5" transform="rotate(8.11044 19.8672 0)" fill="#DAF6FF"/>
<rect x="20.1767" y="0.412373" width="92.6042" height="115.938" rx="17.1354" transform="rotate(8.11044 20.1767 0.412373)" stroke="#F4F5F6" stroke-width="0.729167"/>
<g clip-path="url(#clip0_309_26418)">
<path d="M86.2378 61.6353L82.7578 52.5219C82.5715 52.0346 82.2582 51.6059 81.8505 51.2803C81.4427 50.9547 80.9553 50.7442 80.4388 50.6704L69.4312 49.1018L69.7528 46.8453C69.8984 45.8232 69.1861 44.8742 68.164 44.7286L38.058 40.4385C37.6102 40.3747 37.1941 40.6859 37.1302 41.1349C37.0663 41.5827 37.3787 41.9989 37.8265 42.0627L67.9326 46.3528C68.059 46.3708 68.1466 46.4874 68.1286 46.6139L64.5907 71.4412L34.2561 67.1186C33.8083 67.0548 33.3921 67.3671 33.3283 67.815L32.6075 72.8732C32.462 73.8942 33.1753 74.8445 34.1974 74.9902L35.7671 75.2139C35.6823 78.6996 38.2266 81.7859 41.7616 82.2897C45.2978 82.7936 48.6029 80.5408 49.494 77.1699L63.5377 79.1711C63.4518 82.6568 65.9961 85.7431 69.5323 86.247C73.0672 86.7507 76.3724 84.498 77.2647 81.1272L83.5446 82.0221C84.5667 82.1678 85.5159 81.4543 85.6614 80.4334L87.1631 69.8945C87.5593 67.1148 87.2396 64.2579 86.2378 61.6353ZM34.2317 73.1047L34.8368 68.8585L39.0539 69.4595C37.5856 70.3771 36.4634 71.8306 35.9985 73.5896L34.4288 73.366C34.3024 73.3479 34.2138 73.23 34.2317 73.1047ZM41.9931 80.6655C39.0788 80.2502 37.0442 77.5407 37.4594 74.6264C37.8749 71.7109 40.5853 69.6777 43.4996 70.093C46.4151 70.5084 48.4486 73.2177 48.0331 76.1332C47.6178 79.0475 44.9085 81.0809 41.9931 80.6655ZM63.7216 77.5402L49.7255 75.5457C49.7704 73.7268 49.1001 72.0179 47.9454 70.7265L64.3592 73.0654L63.7216 77.5402ZM69.7637 84.6227C66.8482 84.2073 64.8148 81.498 65.2301 78.5837C65.6455 75.6682 68.3548 73.6348 71.2703 74.0503C74.1846 74.4655 76.2192 77.175 75.8037 80.0904C75.3884 83.0048 72.678 85.038 69.7637 84.6227ZM84.5425 76.6553C83.7147 76.2012 83.2111 75.2665 83.3519 74.278L83.7054 71.7976C83.7234 71.6712 83.8412 71.5838 83.9665 71.6016L85.2369 71.7827L84.5425 76.6553ZM85.4683 70.1584L84.198 69.9774C83.177 69.8319 82.2268 70.5441 82.0812 71.5662L81.7277 74.0466C81.4581 75.9388 82.5747 77.7137 84.3022 78.3422L84.0371 80.2019C84.0193 80.3272 83.9025 80.4159 83.776 80.3979L77.4961 79.503C77.5811 76.0161 75.0367 72.9298 71.5017 72.426C69.3821 72.124 67.3464 72.8117 65.8636 74.138L69.1998 50.7261L80.2073 52.2946C80.6691 52.3604 81.0591 52.6717 81.2243 53.1072L84.7044 62.2205C85.6078 64.5908 85.895 67.1516 85.5389 69.6631L85.4683 70.1584ZM70.142 81.9673C68.6916 81.7606 67.6797 80.4124 67.8864 78.962C68.0931 77.5116 69.4412 76.4997 70.8917 76.7064C72.3421 76.9131 73.3539 78.2612 73.1472 79.7117C72.9406 81.1621 71.5924 82.1739 70.142 81.9673ZM70.6602 78.3307C70.1054 78.2517 69.5897 78.6388 69.5106 79.1936C69.4315 79.7483 69.8186 80.2641 70.3734 80.3431C70.9282 80.4222 71.444 80.0351 71.523 79.4803C71.6021 78.9255 71.215 78.4098 70.6602 78.3307ZM42.3716 78.01C40.9212 77.8033 39.9093 76.4552 40.116 75.0047C40.3227 73.5543 41.6708 72.5425 43.1213 72.7492C44.5717 72.9558 45.5835 74.304 45.3768 75.7544C45.1702 77.2048 43.822 78.2167 42.3716 78.01ZM42.8898 74.3735C42.335 74.2944 41.8193 74.6815 41.7402 75.2363C41.6611 75.7911 42.0482 76.3068 42.603 76.3859C43.1578 76.4649 43.6736 76.0779 43.7526 75.5231C43.8317 74.9683 43.4446 74.4525 42.8898 74.3735ZM82.28 66.8024C82.1423 66.7827 82.0057 66.7477 81.8725 66.6966L70.0387 62.1572C69.2182 61.8425 68.7319 61.0152 68.8559 60.1455L69.7748 53.697C69.9204 52.6751 70.8702 51.9622 71.8921 52.1078L79.1485 53.1419C79.4792 53.1891 79.7913 53.3239 80.0523 53.5323C80.3134 53.7408 80.514 54.0152 80.6332 54.3273L83.7817 62.5727C84.028 63.2187 84.2259 63.8822 84.3738 64.5576C84.4456 64.8859 84.4271 65.2274 84.3203 65.5459C84.2135 65.8645 84.0224 66.1482 83.7673 66.3668C83.5647 66.5412 83.3273 66.6703 83.0708 66.7454C82.8142 66.8205 82.5446 66.84 82.28 66.8024ZM71.6606 53.732C71.5999 53.7235 71.5383 53.7393 71.4892 53.7762C71.4402 53.813 71.4077 53.8677 71.399 53.9284L70.4801 60.3769C70.4648 60.4843 70.5249 60.5865 70.6261 60.6254L82.4601 65.1647C82.5737 65.2081 82.6576 65.1568 82.6977 65.1225C82.7439 65.0828 82.7942 65.0135 82.771 64.9084C82.6407 64.3128 82.4661 63.7276 82.2488 63.1579L79.1004 54.9126C79.0856 54.874 79.0609 54.8401 79.0286 54.8143C78.9964 54.7886 78.9578 54.7719 78.9169 54.7661L71.6606 53.732ZM54.5558 46.8069C48.9233 46.0043 43.6888 49.9341 42.8863 55.5654C42.0837 61.198 46.0123 66.4323 51.6448 67.2349C57.2762 68.0374 62.5117 64.109 63.3143 58.4764C64.1168 52.845 60.1872 47.6094 54.5558 46.8069ZM51.8763 65.6107C47.1394 64.9357 43.8355 60.5338 44.5105 55.7969C45.1854 51.0611 49.5875 47.7561 54.3244 48.4311C59.0601 49.106 62.365 53.5092 61.6901 58.245C61.0151 62.9819 56.612 66.2856 51.8763 65.6107ZM57.2866 60.3057C57.0724 60.5794 56.7367 60.7008 56.4165 60.6552C56.2587 60.6327 56.1054 60.5706 55.9713 60.4651L52.5217 57.7588C52.2672 57.5592 52.1233 57.2321 52.1722 56.8887L52.8609 52.0555C52.9338 51.5438 53.4085 51.1865 53.9213 51.2596C54.4341 51.3327 54.7901 51.8084 54.7172 52.32L54.1047 56.6184L57.1285 58.9894C57.3239 59.143 57.4504 59.368 57.48 59.6148C57.5096 59.8616 57.4401 60.1101 57.2866 60.3057ZM39.9597 46.3848L31.3554 45.1587C31.14 45.128 30.9457 45.013 30.8151 44.839C30.6845 44.665 30.6283 44.4462 30.659 44.2308C30.6897 44.0155 30.8047 43.8211 30.9787 43.6905C31.1527 43.5599 31.3715 43.5038 31.5869 43.5345L40.1912 44.7606C40.4065 44.7913 40.6009 44.9063 40.7315 45.0803C40.8621 45.2543 40.9182 45.473 40.8875 45.6884C40.8568 45.9038 40.7418 46.0982 40.5678 46.2288C40.3938 46.3594 40.1751 46.4155 39.9597 46.3848ZM39.0665 52.6528L30.4622 51.4266C30.2468 51.396 30.0525 51.281 29.9219 51.107C29.7913 50.933 29.7352 50.7142 29.7658 50.4988C29.7965 50.2834 29.9115 50.0891 30.0855 49.9585C30.2595 49.8279 30.4783 49.7717 30.6937 49.8024L39.298 51.0285C39.5134 51.0592 39.7077 51.1742 39.8383 51.3482C39.9689 51.5222 40.025 51.741 39.9944 51.9564C39.9637 52.1718 39.8487 52.3661 39.6747 52.4967C39.5007 52.6273 39.2819 52.6834 39.0665 52.6528ZM38.1734 58.9206L29.5691 57.6945C29.3537 57.6638 29.1593 57.5488 29.0287 57.3748C28.8981 57.2008 28.842 56.9821 28.8727 56.7667C28.9034 56.5513 29.0184 56.3569 29.1924 56.2263C29.3664 56.0957 29.5851 56.0396 29.8005 56.0703L38.4048 57.2964C38.6202 57.3271 38.8146 57.4421 38.9452 57.6161C39.0758 57.7901 39.1319 58.0088 39.1012 58.2242C39.0705 58.4396 38.9555 58.634 38.7815 58.7646C38.6075 58.8952 38.3887 58.9513 38.1734 58.9206ZM37.2802 65.1886L28.6759 63.9625C28.4605 63.9318 28.2661 63.8168 28.1355 63.6428C28.0049 63.4688 27.9488 63.25 27.9795 63.0346C28.0102 62.8193 28.1252 62.6249 28.2992 62.4943C28.4732 62.3637 28.692 62.3076 28.9073 62.3383L37.5116 63.5644C37.727 63.5951 37.9214 63.71 38.052 63.8841C38.1826 64.0581 38.2387 64.2768 38.208 64.4922C38.1773 64.7076 38.0623 64.9019 37.8883 65.0325C37.7143 65.1631 37.4956 65.2193 37.2802 65.1886Z" fill="black" stroke="black" stroke-width="0.3"/>
</g>
</g>
<defs>
<filter id="filter0_d_309_26418" x="-2.42513" y="0" width="120.526" height="163.667" filterUnits="userSpaceOnUse" color-interpolation-filters="sRGB">
<feFlood flood-opacity="0" result="BackgroundImageFix"/>
<feColorMatrix in="SourceAlpha" type="matrix" values="0 0 0 0 0 0 0 0 0 0 0 0 0 0 0 0 0 0 127 0" result="hardAlpha"/>
<feMorphology radius="17.5" operator="erode" in="SourceAlpha" result="effect1_dropShadow_309_26418"/>
<feOffset dy="29.1667"/>
<feGaussianBlur stdDeviation="11.6667"/>
<feColorMatrix type="matrix" values="0 0 0 0 0.0583333 0 0 0 0 0.0583333 0 0 0 0 0.0583333 0 0 0 0.12 0"/>
<feBlend mode="multiply" in2="BackgroundImageFix" result="effect1_dropShadow_309_26418"/>
<feBlend mode="normal" in="SourceGraphic" in2="effect1_dropShadow_309_26418" result="shape"/>
</filter>
<clipPath id="clip0_309_26418">
<rect width="60" height="60" fill="white" transform="translate(32.4648 30) rotate(8.11)"/>
</clipPath>
</defs>
</svg>
