<svg width="50" height="50" viewBox="0 0 50 50" fill="none" xmlns="http://www.w3.org/2000/svg">
<path fill-rule="evenodd" clip-rule="evenodd" d="M44.3636 24.4637C44.1442 24.5006 43.9485 24.6232 43.8195 24.8045C43.6905 24.9857 43.6388 25.2108 43.6757 25.4302C43.8569 26.504 43.9492 27.5862 43.9492 28.6467C43.9492 34.5596 41.3149 39.897 37.0664 43.4507C36.7123 41.1244 35.7076 38.9455 34.1682 37.1657C32.6289 35.3858 30.6176 34.0775 28.3666 33.3918C29.288 32.7803 30.0439 31.9506 30.567 30.9763C31.0902 30.002 31.3643 28.9135 31.365 27.8077C31.365 24.1063 28.3548 21.0961 24.6534 21.0961C20.9519 21.0961 17.9418 24.1063 17.9418 27.8077C17.9418 30.1366 19.1348 32.187 20.9402 33.3918C18.6891 34.0775 16.6779 35.3858 15.1385 37.1657C13.5992 38.9455 12.5944 41.1244 12.2403 43.4507C10.0778 41.6387 8.34035 39.3732 7.15092 36.8149C5.9615 34.2566 5.34926 31.468 5.35758 28.6467C5.35758 27.5862 5.44987 26.5057 5.63108 25.4302C5.65128 25.3207 5.64951 25.2084 5.62586 25.0996C5.60222 24.9909 5.55718 24.8879 5.49336 24.7967C5.42954 24.7056 5.34823 24.628 5.25414 24.5686C5.16006 24.5092 5.05509 24.469 4.94535 24.4506C4.83561 24.4321 4.72329 24.4356 4.61494 24.461C4.50658 24.4863 4.40435 24.533 4.3142 24.5982C4.22405 24.6635 4.14778 24.746 4.08983 24.841C4.03189 24.936 3.99342 25.0416 3.97667 25.1516C3.78072 26.3064 3.68138 27.4754 3.67969 28.6467C3.67969 38.9489 11.0389 47.6455 21.1768 49.3234C21.3924 49.3513 21.6104 49.2944 21.7849 49.1647C21.9594 49.035 22.0767 48.8427 22.1122 48.6282C22.1476 48.4137 22.0984 48.1938 21.975 48.0149C21.8515 47.836 21.6634 47.7119 21.4503 47.669C18.7091 47.2162 16.0987 46.1743 13.7991 44.6152C14.2001 38.9221 18.8814 34.5193 24.6534 34.5193C30.4253 34.5193 35.105 38.9221 35.5094 44.6152C33.2092 46.1745 30.5982 47.2164 27.8565 47.669C27.7448 47.6834 27.6371 47.7202 27.5399 47.7772C27.4427 47.8342 27.358 47.9101 27.2908 48.0005C27.2236 48.091 27.1753 48.194 27.1488 48.3035C27.1222 48.413 27.118 48.5267 27.1364 48.6378C27.1548 48.749 27.1954 48.8553 27.2557 48.9504C27.3161 49.0455 27.3949 49.1275 27.4877 49.1915C27.5804 49.2555 27.6851 49.3001 27.7954 49.3228C27.9058 49.3454 28.0195 49.3456 28.13 49.3234C38.2678 47.6455 45.6271 38.9506 45.6271 28.6467C45.6271 27.4923 45.5264 26.3161 45.3301 25.1516C45.3122 25.0428 45.2729 24.9386 45.2146 24.845C45.1562 24.7514 45.0799 24.6703 44.9901 24.6064C44.9003 24.5424 44.7986 24.4969 44.6911 24.4724C44.5836 24.4479 44.4723 24.445 44.3636 24.4637ZM19.6197 27.8077C19.6197 25.0325 21.8781 22.774 24.6534 22.774C27.4286 22.774 29.6871 25.0325 29.6871 27.8077C29.6871 30.583 27.4286 32.8414 24.6534 32.8414C21.8781 32.8414 19.6197 30.583 19.6197 27.8077ZM33.8415 7.63775C33.7933 7.48857 33.7042 7.35588 33.5844 7.25475C33.4646 7.15362 33.3188 7.08809 33.1637 7.06559L27.8028 6.28705L25.4051 1.42786C25.1232 0.857379 24.1836 0.857379 23.9017 1.42786L21.504 6.28705L16.1431 7.06559C15.9881 7.08809 15.8426 7.15351 15.7229 7.25444C15.6032 7.35537 15.5141 7.48779 15.4657 7.63671C15.4174 7.78564 15.4116 7.94512 15.4492 8.09713C15.4868 8.24913 15.5661 8.38759 15.6783 8.49684L19.5576 12.2771L18.6415 17.6162C18.6149 17.7706 18.6321 17.9293 18.6912 18.0745C18.7502 18.2196 18.8487 18.3453 18.9755 18.4373C19.1022 18.5293 19.2523 18.584 19.4085 18.5952C19.5648 18.6063 19.7211 18.5735 19.8596 18.5004L24.6534 15.9786L29.4471 18.5004C29.5854 18.5746 29.742 18.608 29.8985 18.5967C30.055 18.5854 30.2051 18.5299 30.3314 18.4367C30.4583 18.3446 30.5569 18.2187 30.6159 18.0734C30.6749 17.928 30.692 17.7691 30.6653 17.6145L29.7491 12.2788L33.6301 8.49516C33.7422 8.38606 33.8215 8.24781 33.8592 8.096C33.8968 7.9442 33.8913 7.7849 33.8432 7.63608L33.8415 7.63775ZM28.2608 11.3811C28.1634 11.4762 28.0905 11.5935 28.0484 11.723C28.0063 11.8525 27.9963 11.9902 28.0192 12.1244L28.7239 16.2235L25.0426 14.2873C24.9219 14.2243 24.7878 14.1915 24.6517 14.1915C24.5156 14.1915 24.3815 14.2243 24.2607 14.2873L20.5811 16.2235L21.2842 12.1244C21.3071 11.9902 21.2971 11.8525 21.255 11.723C21.2129 11.5935 21.14 11.4762 21.0425 11.3811L18.066 8.48006L22.1802 7.88273C22.3145 7.863 22.442 7.81103 22.5519 7.73125C22.6618 7.65148 22.7507 7.54629 22.811 7.42466L24.6534 3.69638L26.494 7.42634C26.5544 7.54796 26.6433 7.65316 26.7532 7.73293C26.863 7.81271 26.9906 7.86468 27.1249 7.8844L31.2391 8.48173L28.2625 11.3828L28.2608 11.3811Z" fill="black"/>
<path fill-rule="evenodd" clip-rule="evenodd" d="M4.57732 21.1348C4.55039 21.2894 4.56732 21.4483 4.62619 21.5937C4.68506 21.7391 4.78351 21.8651 4.91037 21.9573C5.03722 22.0496 5.18739 22.1044 5.34384 22.1156C5.50029 22.1269 5.65676 22.094 5.79547 22.0208L9.55227 20.0442L13.3108 22.0208C13.4489 22.0946 13.6051 22.1278 13.7613 22.1165C13.9175 22.1052 14.0673 22.0499 14.1933 21.957C14.3203 21.8649 14.4189 21.739 14.4779 21.5937C14.5369 21.4483 14.554 21.2894 14.5272 21.1348L13.8091 16.9518L16.8494 13.9904C16.9621 13.8812 17.0419 13.7426 17.0798 13.5903C17.1176 13.4381 17.112 13.2783 17.0636 13.129C17.0152 12.9798 16.9259 12.8471 16.8059 12.7461C16.6859 12.6451 16.54 12.5797 16.3847 12.5574L12.1832 11.9484L10.304 8.13953C10.0221 7.56905 9.08246 7.56905 8.80058 8.13953L6.92134 11.9484L2.71989 12.5574C2.56459 12.5797 2.41864 12.6451 2.29863 12.7461C2.17861 12.8471 2.08933 12.9798 2.04093 13.129C1.99252 13.2783 1.98693 13.4381 2.02479 13.5903C2.06265 13.7426 2.14245 13.8812 2.25511 13.9904L5.29545 16.9518L4.57732 21.1348ZM4.64443 13.9753L7.59753 13.5457C7.73216 13.5262 7.86006 13.4744 7.97024 13.3946C8.08042 13.3148 8.16959 13.2095 8.23009 13.0876L9.55227 10.408L10.8745 13.0876C10.9348 13.2093 11.0237 13.3145 11.1336 13.3942C11.2435 13.474 11.371 13.526 11.5053 13.5457L14.4601 13.9753L12.3225 16.0575C12.225 16.1526 12.1521 16.2699 12.11 16.3994C12.0679 16.5289 12.0579 16.6666 12.0809 16.8008L12.5859 19.7439L9.94322 18.3546C9.82252 18.2916 9.6884 18.2588 9.55227 18.2588C9.41615 18.2588 9.28203 18.2916 9.16132 18.3546L6.51864 19.7439L7.02201 16.8008C7.04515 16.6668 7.0354 16.5291 6.99361 16.3996C6.95182 16.2701 6.87923 16.1528 6.78207 16.0575L4.64443 13.9753ZM46.5868 12.5574L42.3853 11.9484L40.5061 8.13953C40.2242 7.56905 39.2846 7.56905 39.0027 8.13953L37.1234 11.9484L32.922 12.5574C32.7667 12.5797 32.6208 12.6451 32.5007 12.7461C32.3807 12.8471 32.2914 12.9798 32.243 13.129C32.1946 13.2783 32.189 13.4381 32.2269 13.5903C32.2648 13.7426 32.3446 13.8812 32.4572 13.9904L35.4976 16.9518L34.7794 21.1348C34.7525 21.2894 34.7694 21.4483 34.8283 21.5937C34.8872 21.7391 34.9856 21.8651 35.1125 21.9573C35.2393 22.0496 35.3895 22.1044 35.546 22.1156C35.7024 22.1269 35.8589 22.094 35.9976 22.0208L39.7544 20.0442L43.5129 22.0208C43.651 22.0946 43.8072 22.1278 43.9634 22.1165C44.1196 22.1052 44.2694 22.0499 44.3954 21.957C44.5224 21.8649 44.621 21.739 44.68 21.5937C44.739 21.4483 44.7561 21.2894 44.7293 21.1348L44.0112 16.9518L47.0516 13.9904C47.1642 13.8812 47.244 13.7426 47.2819 13.5903C47.3197 13.4381 47.3141 13.2783 47.2657 13.129C47.2173 12.9798 47.128 12.8471 47.008 12.7461C46.888 12.6451 46.7421 12.5797 46.5868 12.5574ZM42.5246 16.0575C42.4271 16.1526 42.3542 16.2699 42.3121 16.3994C42.2701 16.5289 42.26 16.6666 42.283 16.8008L42.788 19.7439L40.1453 18.3546C40.0246 18.2916 39.8905 18.2588 39.7544 18.2588C39.6183 18.2588 39.4841 18.2916 39.3634 18.3546L36.7207 19.7439L37.2241 16.8008C37.2473 16.6668 37.2375 16.5291 37.1957 16.3996C37.1539 16.2701 37.0813 16.1528 36.9842 16.0575L34.8465 13.9753L37.7996 13.5457C37.9343 13.5262 38.0622 13.4744 38.1723 13.3946C38.2825 13.3148 38.3717 13.2095 38.4322 13.0876L39.7544 10.408L41.0766 13.0876C41.1369 13.2093 41.2258 13.3145 41.3357 13.3942C41.4456 13.474 41.5731 13.526 41.7075 13.5457L44.6622 13.9753L42.5246 16.0575Z" fill="black"/>
<path d="M24.6534 49.6205C25.1167 49.6205 25.4923 49.2449 25.4923 48.7816C25.4923 48.3182 25.1167 47.9426 24.6534 47.9426C24.1901 47.9426 23.8145 48.3182 23.8145 48.7816C23.8145 49.2449 24.1901 49.6205 24.6534 49.6205Z" fill="black"/>
</svg>
