<svg width="40" height="40" viewBox="0 0 40 40" fill="none" xmlns="http://www.w3.org/2000/svg">
<circle cx="20" cy="20" r="19.25" stroke="#363636" stroke-width="1.5"/>
<path d="M23.75 12.5H16.25C14.1789 12.5 12.5 14.1789 12.5 16.25V23.75C12.5 25.8211 14.1789 27.5 16.25 27.5H23.75C25.8211 27.5 27.5 25.8211 27.5 23.75V16.25C27.5 14.1789 25.8211 12.5 23.75 12.5Z" stroke="#020C12" stroke-width="1.5" stroke-linecap="round" stroke-linejoin="round"/>
<path d="M22.9988 19.5287C23.0914 20.1529 22.9847 20.7904 22.6941 21.3505C22.4035 21.9106 21.9437 22.3648 21.38 22.6485C20.8164 22.9322 20.1776 23.0309 19.5546 22.9307C18.9316 22.8304 18.3561 22.5363 17.9099 22.0901C17.4637 21.6439 17.1696 21.0684 17.0694 20.4454C16.9691 19.8224 17.0679 19.1836 17.3515 18.62C17.6352 18.0563 18.0894 17.5965 18.6495 17.3059C19.2096 17.0153 19.8471 16.9086 20.4713 17.0012C21.108 17.0956 21.6974 17.3923 22.1526 17.8474C22.6077 18.3026 22.9044 18.892 22.9988 19.5287Z" stroke="#020C12" stroke-width="1.5" stroke-linecap="round" stroke-linejoin="round"/>
<path d="M24.125 15.875H24.1319" stroke="#020C12" stroke-width="2" stroke-linecap="round" stroke-linejoin="round"/>
</svg>
