<svg width="40" height="40" viewBox="0 0 40 40" fill="none" xmlns="http://www.w3.org/2000/svg">
<circle cx="20" cy="20" r="19.25" stroke="#020C12" stroke-width="1.5"/>
<path d="M15.8374 15.5903H12.2852V26.9182H15.8374V15.5903Z" stroke="black"/>
<path d="M25.449 15.3449C25.318 15.3285 25.1789 15.3203 25.0397 15.3122C23.0508 15.2303 21.9295 16.4089 21.5366 16.9164C21.4302 17.0555 21.3811 17.1374 21.3811 17.1374V15.6232H17.9844V26.9511H21.3811H21.5366C21.5366 25.797 21.5366 24.6511 21.5366 23.497C21.5366 22.875 21.5366 22.2529 21.5366 21.6309C21.5366 20.8615 21.4793 20.043 21.864 19.3391C22.1914 18.7498 22.7807 18.4552 23.4437 18.4552C25.4081 18.4552 25.449 20.2313 25.449 20.395C25.449 20.4032 25.449 20.4113 25.449 20.4113V27.0002H29.0012V19.6092C29.0012 17.0801 27.7162 15.5904 25.449 15.3449Z" stroke="black"/>
<path d="M14.0626 14.1252C15.2017 14.1252 16.1252 13.2017 16.1252 12.0626C16.1252 10.9235 15.2017 10 14.0626 10C12.9234 10 12 10.9235 12 12.0626C12 13.2017 12.9234 14.1252 14.0626 14.1252Z" stroke="black"/>
</svg>
