<svg width="40" height="40" viewBox="0 0 40 40" fill="none" xmlns="http://www.w3.org/2000/svg">
<circle cx="20" cy="20" r="19.25" stroke="#363636" stroke-width="1.5"/>
<path fill-rule="evenodd" clip-rule="evenodd" d="M27.9993 21.5833V27.0009H24.5492V21.9392C24.5492 20.6738 24.0748 19.8038 22.8242 19.8038C21.8754 19.8038 21.3148 20.397 21.056 20.9506C20.9697 21.1483 20.9266 21.4251 20.9266 21.7019V27.0009H17.4766C17.4766 27.0009 17.5197 18.4197 17.4766 17.5498H20.9266V18.8943C20.9266 18.8943 20.9266 18.9338 20.8835 18.9338H20.9266V18.8943C21.401 18.2616 22.1773 17.3125 24.0317 17.3125C26.2742 17.3125 27.9993 18.6966 27.9993 21.5833ZM13.9407 13C12.7763 13 12 13.7118 12 14.6213C12 15.5308 12.7331 16.2426 13.8975 16.2426H13.9407C15.1482 16.2426 15.8813 15.5309 15.8813 14.6213C15.8382 13.7118 15.1051 13 13.9407 13ZM12.1719 26.998H15.5788V17.5469H12.1719V26.998Z" fill="#020C12"/>
</svg>
