<svg width="24" height="24" viewBox="0 0 24 24" fill="none" xmlns="http://www.w3.org/2000/svg">
<path d="M11.9989 14.17C9.86891 14.17 8.12891 12.44 8.12891 10.3C8.12891 8.16 9.86891 6.44 11.9989 6.44C14.1289 6.44 15.8689 8.17 15.8689 10.31C15.8689 12.45 14.1289 14.17 11.9989 14.17ZM11.9989 7.94C10.6989 7.94 9.62891 9 9.62891 10.31C9.62891 11.62 10.6889 12.68 11.9989 12.68C13.3089 12.68 14.3689 11.62 14.3689 10.31C14.3689 9 13.2989 7.94 11.9989 7.94Z" fill="#292D32"/>
<path d="M12.0016 22.76C10.5216 22.76 9.03164 22.2 7.87164 21.09C4.92164 18.25 1.66164 13.72 2.89164 8.33C4.00164 3.44 8.27164 1.25 12.0016 1.25C12.0016 1.25 12.0016 1.25 12.0116 1.25C15.7416 1.25 20.0116 3.44 21.1216 8.34C22.3416 13.73 19.0816 18.25 16.1316 21.09C14.9716 22.2 13.4816 22.76 12.0016 22.76ZM12.0016 2.75C9.09164 2.75 5.35164 4.3 4.36164 8.66C3.28164 13.37 6.24164 17.43 8.92164 20C10.6516 21.67 13.3616 21.67 15.0916 20C17.7616 17.43 20.7216 13.37 19.6616 8.66C18.6616 4.3 14.9116 2.75 12.0016 2.75Z" fill="#292D32"/>
</svg>
