<svg width="40" height="40" viewBox="0 0 40 40" fill="none" xmlns="http://www.w3.org/2000/svg">
<circle cx="20" cy="20" r="19.25" stroke="#363636" stroke-width="1.5"/>
<path d="M25.2566 15.4218C25.1475 15.366 25.0414 15.3048 24.9386 15.2385C24.6395 15.0427 24.3653 14.8119 24.1219 14.5512C23.5128 13.8609 23.2853 13.1606 23.2015 12.6703H23.2049C23.1349 12.2633 23.1638 12 23.1682 12H20.3941V22.6255C20.3941 22.7681 20.3941 22.9091 20.388 23.0484C20.388 23.0658 20.3863 23.0818 20.3853 23.1004C20.3853 23.1081 20.3853 23.1161 20.3836 23.1241C20.3836 23.1261 20.3836 23.1281 20.3836 23.1301C20.3544 23.5114 20.231 23.8796 20.0244 24.2026C19.8177 24.5255 19.5341 24.7931 19.1985 24.982C18.8487 25.1791 18.4531 25.2825 18.0506 25.282C16.7581 25.282 15.7106 24.2381 15.7106 22.9488C15.7106 21.6595 16.7581 20.6156 18.0506 20.6156C18.2953 20.6153 18.5385 20.6535 18.7711 20.7286L18.7745 17.9307C18.0683 17.8403 17.3508 17.8959 16.6674 18.094C15.984 18.292 15.3494 18.6282 14.8037 19.0813C14.3256 19.4928 13.9236 19.9838 13.6158 20.5322C13.4987 20.7322 13.0569 21.5359 13.0034 22.8401C12.9698 23.5804 13.1942 24.3474 13.3012 24.6644V24.671C13.3685 24.8577 13.6293 25.4947 14.0543 26.0316C14.397 26.4624 14.8019 26.8407 15.256 27.1546V27.1479L15.2627 27.1546C16.6057 28.0585 18.0947 27.9992 18.0947 27.9992C18.3525 27.9889 19.216 27.9992 20.1965 27.5389C21.2841 27.0286 21.9033 26.2683 21.9033 26.2683C22.2989 25.814 22.6134 25.2963 22.8334 24.7374C23.0844 24.0837 23.1682 23.2998 23.1682 22.9865V17.3494C23.2019 17.3694 23.6501 17.6631 23.6501 17.6631C23.6501 17.6631 24.2958 18.073 25.3033 18.34C26.0262 18.53 27 18.57 27 18.57V15.8421C26.6588 15.8788 25.9659 15.7721 25.2566 15.4218Z" fill="#020C12"/>
</svg>
